<svg width="64" height="64" viewBox="0 0 64 64" fill="none" xmlns="http://www.w3.org/2000/svg">
<rect x="2" y="2" width="60" height="60" rx="20" fill="black"/>
<path fill-rule="evenodd" clip-rule="evenodd" d="M32 12.3125C23.7157 12.3125 17 19.0282 17 27.3125V34.8125C17 42.0497 22.1254 48.0898 28.9444 49.501L28.25 62H35.75L35.0556 49.501C41.8746 48.0898 47 42.0497 47 34.8125V27.3125C47 19.0282 40.2843 12.3125 32 12.3125Z" fill="white"/>
<circle cx="37.1562" cy="26.8438" r="2.34375" fill="black"/>
<circle cx="26.8438" cy="26.8438" r="2.34375" fill="black"/>
<rect x="24.9688" y="39.1232" width="2.8125" height="3.75" rx="1.40625" transform="rotate(-120 24.9688 39.1232)" fill="#F2A500"/>
<path d="M26.1406 33.4062C25.7523 33.4062 25.4339 33.7218 25.4726 34.1082C25.5411 34.7908 25.7092 35.4609 25.9727 36.097C26.3261 36.9501 26.844 37.7252 27.4969 38.3781C28.1498 39.031 28.9249 39.5489 29.778 39.9023C30.6311 40.2556 31.5454 40.4375 32.4688 40.4375C33.3921 40.4375 34.3064 40.2556 35.1595 39.9023C36.0126 39.5489 36.7877 39.031 37.4406 38.3781C38.0935 37.7252 38.6114 36.9501 38.9648 36.097C39.2283 35.4609 39.3964 34.7908 39.4649 34.1082C39.5036 33.7218 39.1852 33.4062 38.7969 33.4062C38.4086 33.4062 38.0983 33.7223 38.0499 34.1076C37.9873 34.6053 37.8583 35.0934 37.6656 35.5588C37.3829 36.2413 36.9686 36.8614 36.4462 37.3837C35.9239 37.9061 35.3038 38.3204 34.6213 38.6031C33.9389 38.8858 33.2074 39.0312 32.4688 39.0312C31.7301 39.0312 30.9986 38.8858 30.3162 38.6031C29.6337 38.3204 29.0136 37.9061 28.4913 37.3837C27.9689 36.8614 27.5546 36.2413 27.2719 35.5588C27.0792 35.0934 26.9502 34.6053 26.8876 34.1075C26.8392 33.7223 26.529 33.4062 26.1406 33.4062Z" fill="#FFBD2F"/>
</svg>














