<svg width="32" height="32" viewBox="0 0 32 32" fill="none" xmlns="http://www.w3.org/2000/svg">
<rect x="2.5" y="2.5" width="27" height="27" rx="5.5" stroke="#E5E5E5"/>
<path fill-rule="evenodd" clip-rule="evenodd" d="M15.7437 10.2511C16.0854 10.5858 16.0854 11.1285 15.7437 11.4632L11.9874 15.1429H22.125C22.6082 15.1429 23 15.5266 23 16C23 16.4734 22.6082 16.8571 22.125 16.8571H11.9874L15.7437 20.5368C16.0854 20.8715 16.0854 21.4142 15.7437 21.7489C15.402 22.0837 14.848 22.0837 14.5063 21.7489L9.25628 16.6061C8.91457 16.2714 8.91457 15.7286 9.25628 15.3939L14.5063 10.2511C14.848 9.91632 15.402 9.91632 15.7437 10.2511Z" fill="black"/>
</svg>







