<svg width="32" height="32" viewBox="0 0 32 32" fill="none" xmlns="http://www.w3.org/2000/svg">
<circle cx="16" cy="16" r="14" fill="black"/>
<path d="M18.9482 16.8385C18.8201 16.722 18.6518 16.6599 18.4787 16.6653C18.3057 16.6706 18.1415 16.743 18.0209 16.8671L16.4255 18.5078C16.0415 18.4345 15.2695 18.1938 14.4749 17.4011C13.6802 16.6058 13.4395 15.8318 13.3682 15.4505L15.0075 13.8545C15.1318 13.7339 15.2043 13.5697 15.2096 13.3966C15.215 13.2235 15.1528 13.0552 15.0362 12.9271L12.5729 10.2185C12.4562 10.09 12.2941 10.0121 12.121 10.0013C11.9478 9.99047 11.7773 10.0476 11.6455 10.1605L10.1989 11.4011C10.0836 11.5168 10.0148 11.6708 10.0055 11.8338C9.99552 12.0005 9.80485 15.9485 12.8662 19.0111C15.5369 21.6811 18.8822 21.8765 19.8035 21.8765C19.9382 21.8765 20.0209 21.8725 20.0429 21.8711C20.2059 21.862 20.3597 21.7929 20.4749 21.6771L21.7149 20.2298C21.8278 20.0981 21.885 19.9276 21.8743 19.7545C21.8636 19.5813 21.7859 19.4192 21.6575 19.3025L18.9482 16.8385Z" fill="white"/>
</svg>










