<svg width="32" height="32" viewBox="0 0 32 32" fill="none" xmlns="http://www.w3.org/2000/svg">
<path fill-rule="evenodd" clip-rule="evenodd" d="M5 6.66669C3.34315 6.66669 2 8.00983 2 9.66668V22.3334C2 23.9902 3.34315 25.3334 5 25.3334H27C28.6569 25.3334 30 23.9902 30 22.3334V9.66669C30 8.00983 28.6569 6.66669 27 6.66669H5ZM25.3333 17.8667C26.3643 17.8667 27.2 17.031 27.2 16C27.2 14.9691 26.3643 14.1334 25.3333 14.1334C24.3024 14.1334 23.4667 14.9691 23.4667 16C23.4667 17.031 24.3024 17.8667 25.3333 17.8667ZM8.53333 16C8.53333 17.031 7.6976 17.8667 6.66667 17.8667C5.63574 17.8667 4.8 17.031 4.8 16C4.8 14.9691 5.63574 14.1334 6.66667 14.1334C7.6976 14.1334 8.53333 14.9691 8.53333 16ZM16.2986 19.8343V21.0439H15.1562V19.8455C13.5994 19.6327 12.8602 18.5015 12.7594 17.5495L14.1482 17.2135C14.2154 17.9191 14.6858 18.5687 15.7162 18.5687C16.4442 18.5687 16.8698 18.2215 16.8698 17.7287C16.8698 17.3479 16.5898 17.0567 16.0298 16.9335L14.9994 16.7095C13.7898 16.4407 13.0394 15.6791 13.0394 14.6039C13.0394 13.4167 13.9578 12.5431 15.1562 12.3527V11.1543H16.2986V12.3863C17.5866 12.6215 18.1466 13.5175 18.3034 14.2679L16.9258 14.6599C16.8586 14.2679 16.5674 13.6183 15.649 13.6183C14.9322 13.6183 14.5402 14.0327 14.5402 14.4919C14.5402 14.8391 14.7866 15.1303 15.313 15.2423L16.3322 15.4775C17.7434 15.7911 18.3818 16.6311 18.3818 17.6391C18.3818 18.6695 17.6426 19.6215 16.2986 19.8343Z" fill="black"/>
</svg>









