<svg width="48" height="48" viewBox="0 0 48 48" fill="none" xmlns="http://www.w3.org/2000/svg">
<rect x="2" y="10" width="44" height="27.5" rx="6" fill="#FFBD2F"/>
<path d="M24.8122 30.9862V29.1877C26.7262 28.8412 27.8152 27.4222 27.8152 25.9042C27.8152 24.4192 26.9407 23.1322 24.7297 22.6372L23.2942 22.3237C22.6507 22.1752 22.3207 21.8287 22.3207 21.3832C22.3207 20.8552 22.7827 20.3107 23.7067 20.3107C25.0102 20.3107 25.2907 21.1687 25.3897 21.6802L27.6832 21.0697C27.4522 19.9477 26.6272 18.6442 24.8122 18.2482V16.4167H22.9147V18.1987C21.1822 18.4957 19.7962 19.7662 19.7962 21.6142C19.7962 23.1817 20.9347 24.3037 22.7827 24.7492L24.2512 25.0957C24.9112 25.2442 25.2742 25.5577 25.2742 26.0362C25.2742 26.6797 24.6802 27.0757 23.8552 27.0757C22.4362 27.0757 21.7762 26.2177 21.6937 25.2607L19.4167 25.7722C19.5322 27.1252 20.5882 28.8412 22.9147 29.2207V30.9862H24.8122Z" fill="black"/>
</svg>












