<svg width="32" height="32" viewBox="0 0 32 32" fill="none" xmlns="http://www.w3.org/2000/svg">
<circle cx="16" cy="16" r="14" fill="black"/>
<path fill-rule="evenodd" clip-rule="evenodd" d="M12 11C10.3431 11 9 12.3431 9 14V18C9 19.6569 10.3431 21 12 21H14.5L17.5 23V21H20C21.6569 21 23 19.6569 23 18V14C23 12.3431 21.6569 11 20 11H12ZM13 17C13.5523 17 14 16.5523 14 16C14 15.4477 13.5523 15 13 15C12.4477 15 12 15.4477 12 16C12 16.5523 12.4477 17 13 17ZM17 16C17 16.5523 16.5523 17 16 17C15.4477 17 15 16.5523 15 16C15 15.4477 15.4477 15 16 15C16.5523 15 17 15.4477 17 16ZM19 17C19.5523 17 20 16.5523 20 16C20 15.4477 19.5523 15 19 15C18.4477 15 18 15.4477 18 16C18 16.5523 18.4477 17 19 17Z" fill="white"/>
</svg>











