<svg width="24" height="24" viewBox="0 0 24 24" fill="none" xmlns="http://www.w3.org/2000/svg">
<path d="M18.7612 9.03937C18.7612 9.03937 18.7612 8.48355 19.8728 8.48355C20.9845 8.48355 20.9845 6.26025 20.9845 6.26025" stroke="black"/>
<path d="M7.16654 18.9967C7.15634 18.6759 7.29327 18.367 7.51716 18.137C8.10887 17.5291 9.32939 16.1113 10.5279 13.7141C11.0536 12.6626 11.7961 11.2018 12.5664 9.69427C14.0626 6.766 18.2042 6.66776 19.8484 9.51558C20.8613 11.27 20.4551 13.4892 18.8082 14.6687C17.651 15.4975 16.167 16.512 14.4187 17.6047C11.4047 19.4884 9.15687 19.8402 8.02126 19.8713C7.53412 19.8846 7.18202 19.4838 7.16654 18.9967Z" fill="#FFBD2F"/>
<mask id="mask0" mask-type="alpha" maskUnits="userSpaceOnUse" x="7" y="7" width="14" height="13">
<path d="M7.16654 18.9966C7.15634 18.6757 7.29327 18.3668 7.51716 18.1368C8.10887 17.5289 9.32939 16.1111 10.5279 13.7139C11.0536 12.6624 11.7961 11.2016 12.5664 9.69408C14.0626 6.76582 18.2042 6.66758 19.8484 9.5154C20.8613 11.2698 20.4551 13.489 18.8082 14.6685C17.651 15.4973 16.167 16.5118 14.4187 17.6045C11.4047 19.4882 9.15687 19.84 8.02126 19.8711C7.53412 19.8845 7.18202 19.4836 7.16654 18.9966Z" fill="#FFBD2F"/>
</mask>
<g mask="url(#mask0)">
<circle cx="19.8728" cy="8.4833" r="2.22329" fill="black"/>
</g>
</svg>










