<svg width="16" height="16" viewBox="0 0 16 16" fill="none" xmlns="http://www.w3.org/2000/svg">
<path d="M9.06064 8.00002L12.0294 5.03127C12.1703 4.89062 12.2495 4.69976 12.2497 4.50068C12.2499 4.3016 12.171 4.1106 12.0303 3.96971C11.8897 3.82881 11.6988 3.74956 11.4997 3.74938C11.3007 3.74921 11.1097 3.82812 10.9688 3.96877L8.00002 6.93752L5.03127 3.96877C4.89037 3.82787 4.69928 3.74872 4.50002 3.74872C4.30076 3.74872 4.10967 3.82787 3.96877 3.96877C3.82787 4.10967 3.74872 4.30076 3.74872 4.50002C3.74872 4.69928 3.82787 4.89037 3.96877 5.03127L6.93752 8.00002L3.96877 10.9688C3.82787 11.1097 3.74872 11.3008 3.74872 11.5C3.74872 11.6993 3.82787 11.8904 3.96877 12.0313C4.10967 12.1722 4.30076 12.2513 4.50002 12.2513C4.69928 12.2513 4.89037 12.1722 5.03127 12.0313L8.00002 9.06252L10.9688 12.0313C11.1097 12.1722 11.3008 12.2513 11.5 12.2513C11.6993 12.2513 11.8904 12.1722 12.0313 12.0313C12.1722 11.8904 12.2513 11.6993 12.2513 11.5C12.2513 11.3008 12.1722 11.1097 12.0313 10.9688L9.06064 8.00002Z" fill="black"/>
</svg>



