<svg width="24" height="24" viewBox="0 0 24 24" fill="none" xmlns="http://www.w3.org/2000/svg">
<path fill-rule="evenodd" clip-rule="evenodd" d="M6 3C3.79086 3 2 4.79086 2 7V16C2 18.2091 3.79086 20 6 20H18C20.2091 20 22 18.2091 22 16V7C22 4.79086 20.2091 3 18 3H6ZM4 7C4 5.89543 4.89543 5 6 5H18C19.1046 5 20 5.89543 20 7V16C20 17.1046 19.1046 18 18 18H6C4.89543 18 4 17.1046 4 16V7ZM8 7C6.89543 7 6 7.89543 6 9V10C6 11.1046 6.89543 12 8 12H10C11.1046 12 12 11.1046 12 10V9C12 7.89543 11.1046 7 10 7H8ZM8 9H10V10H8V9ZM13 9C13 8.44772 13.4477 8 14 8H17C17.5523 8 18 8.44772 18 9C18 9.55228 17.5523 10 17 10H14C13.4477 10 13 9.55228 13 9ZM7 14C6.44772 14 6 14.4477 6 15C6 15.5523 6.44772 16 7 16H17C17.5523 16 18 15.5523 18 15C18 14.4477 17.5523 14 17 14H7Z" fill="black"/>
</svg>








