<svg width="16" height="16" viewBox="0 0 16 16" fill="none"
  xmlns="http://www.w3.org/2000/svg">
  <g clip-path="url(#clip0)">
    <path d="M12.6429 2.74982H9.96429L9.75446 2.31154C9.71002 2.21784 9.64155 2.13902 9.55677 2.08395C9.47198 2.02888 9.37425 1.99975 9.27455 1.99982H6.72321C6.62375 1.99942 6.52618 2.02845 6.4417 2.08358C6.35721 2.13871 6.28923 2.21771 6.24554 2.31154L6.03571 2.74982H3.35714C3.26242 2.74982 3.17158 2.78933 3.1046 2.85966C3.03763 2.92998 3 3.02536 3 3.12482V3.87482C3 3.97428 3.03763 4.06966 3.1046 4.13999C3.17158 4.21031 3.26242 4.24982 3.35714 4.24982H12.6429C12.7376 4.24982 12.8284 4.21031 12.8954 4.13999C12.9624 4.06966 13 3.97428 13 3.87482V3.12482C13 3.02536 12.9624 2.92998 12.8954 2.85966C12.8284 2.78933 12.7376 2.74982 12.6429 2.74982ZM4.1875 12.9451C4.20453 13.2307 4.32459 13.4988 4.52323 13.6947C4.72186 13.8907 4.98415 13.9998 5.2567 13.9998H10.7433C11.0158 13.9998 11.2781 13.8907 11.4768 13.6947C11.6754 13.4988 11.7955 13.2307 11.8125 12.9451L12.2857 4.99982H3.71429L4.1875 12.9451Z" fill="black"/>
  </g>
  <defs>
    <clipPath id="clip0">
      <rect width="10" height="12" fill="white" transform="translate(3 2)"/>
    </clipPath>
  </defs>
</svg>






