<svg width="16" height="16" viewBox="0 0 16 16" fill="none" xmlns="http://www.w3.org/2000/svg">
<path fill-rule="evenodd" clip-rule="evenodd" d="M3 8.90002C3 8.62388 3.22386 8.40002 3.5 8.40002H12.5C12.7761 8.40002 13 8.62388 13 8.90002V11.9769C13 12.2531 12.7761 12.4769 12.5 12.4769H3.5C3.22386 12.4769 3 12.2531 3 11.9769V8.90002ZM4 9.40002V11.4769H12V9.40002H4Z" fill="black"/>
<path fill-rule="evenodd" clip-rule="evenodd" d="M4.625 3.5C4.39178 3.5 4.18953 3.66125 4.13757 3.88861L3.01257 8.81169C2.97867 8.96005 3.01418 9.11578 3.10905 9.23477C3.20392 9.35377 3.34782 9.42308 3.5 9.42308H6.2876C6.50213 10.1352 7.16302 10.6538 7.94505 10.6538H8.05494C8.83697 10.6538 9.49786 10.1352 9.71239 9.42308H12.5C12.6522 9.42308 12.7961 9.35377 12.891 9.23477C12.9858 9.11578 13.0213 8.96005 12.9874 8.81169L11.8624 3.88861C11.8105 3.66125 11.6082 3.5 11.375 3.5H4.625ZM7.41212 9.42308H8.58787C8.45456 9.56511 8.26511 9.65383 8.05494 9.65383H7.94505C7.73488 9.65383 7.54543 9.56511 7.41212 9.42308ZM9.28571 8.42308H11.8729L10.9764 4.5H5.02364L4.12715 8.42308H6.71428V8.42307H9.28571V8.42308Z" fill="black"/>
</svg>

