<svg width="24" height="24" viewBox="0 0 24 24" fill="none" xmlns="http://www.w3.org/2000/svg">
<circle cx="17.5" cy="15.5" r="3.5" fill="#FFBD2F"/>
<path d="M4.71698 7.18694C4.71698 6.22849 5.37107 5.5727 6.25157 5.5727C7.13207 5.5727 7.76101 6.22849 7.76101 7.18694C7.76101 8.17062 7.13207 8.85163 6.25157 8.85163C5.37107 8.85163 4.71698 8.19585 4.71698 7.18694ZM2 7.18694C2 9.53264 3.88679 11.3739 6.22641 11.3739C8.56604 11.3739 10.5031 9.60831 10.5031 7.18694C10.5031 4.84125 8.56604 3 6.25157 3C3.93711 3 2 4.84125 2 7.18694ZM16.2138 15.8131C16.2138 14.8546 16.8679 14.1988 17.7484 14.1988C18.6289 14.1988 19.2579 14.8546 19.2579 15.8131C19.2579 16.7967 18.6289 17.4777 17.7484 17.4777C16.8679 17.4777 16.2138 16.822 16.2138 15.8131ZM13.4969 15.8131C13.4969 18.1588 15.3836 20 17.7233 20C20.0629 20 22 18.2344 22 15.8131C22 13.4674 20.0629 11.6261 17.7484 11.6261C15.434 11.6261 13.4969 13.4674 13.4969 15.8131ZM7.91195 19.6721L19.3585 3.30267H16.1132L4.69182 19.6721H7.91195Z" fill="black"/>
</svg>






