<svg width="37" height="37" viewBox="0 0 37 37" fill="none" xmlns="http://www.w3.org/2000/svg">
<path d="M27.4865 15.6115V15.6115C25.9369 10.2303 18.8507 9.03115 15.6168 13.6028L14.0072 15.8782L11.5036 16.5992C9.65995 17.1301 8.5958 19.0551 9.12671 20.8987V20.8987" stroke="#FFBD2F"/>
<ellipse cx="21.9986" cy="15.3844" rx="2.17113" ry="1.7369" transform="rotate(-16.0651 21.9986 15.3844)" fill="black"/>
<path fill-rule="evenodd" clip-rule="evenodd" d="M9.54458 20.7783L8.70941 21.0188L8.91985 21.7495C9.99818 25.4941 13.9079 27.6555 17.6524 26.5771L22.5559 25.1651C26.704 23.9705 29.0983 19.6394 27.9038 15.4913L27.0482 15.7377C27.2829 17.1978 26.3958 18.6368 24.9388 19.0564L12.8281 22.544C11.4324 22.9459 9.97597 22.1573 9.54458 20.7783Z" fill="#FFBD2F"/>
</svg>












