<svg width="24" height="24" viewBox="0 0 24 24" fill="none" xmlns="http://www.w3.org/2000/svg">
<path d="M2 9H22V15.5C22 17.433 20.433 19 18.5 19H5.5C3.567 19 2 17.433 2 15.5V9Z" fill="#FFBD2F"/>
<path d="M22 9.5C22 11.433 20.433 13 18.5 13L5.5 13C3.567 13 2 11.433 2 9.5L2 8.5C2 6.567 3.567 5 5.5 5L18.5 5C20.433 5 22 6.567 22 8.5L22 9.5Z" fill="#FFD374"/>
<path d="M10 9.5C9.72386 9.5 9.5 9.72386 9.5 10C9.5 10.2761 9.72386 10.5 10 10.5V9.5ZM10 6.5C9.72386 6.5 9.5 6.72386 9.5 7C9.5 7.27614 9.72386 7.5 10 7.5V6.5ZM16.5 9.5H10V10.5H16.5V9.5ZM10 7.5H16.5V6.5H10V7.5ZM17.5 8.5C17.5 9.05228 17.0523 9.5 16.5 9.5V10.5C17.6046 10.5 18.5 9.60457 18.5 8.5H17.5ZM18.5 8.5C18.5 7.39543 17.6046 6.5 16.5 6.5V7.5C17.0523 7.5 17.5 7.94772 17.5 8.5H18.5Z" fill="black"/>
<path d="M16 4H9C7.34315 4 6 5.34315 6 7V7C6 8.65685 7.34315 10 9 10H11" stroke="black" stroke-linecap="round"/>
</svg>










