<svg width="24" height="24" viewBox="0 0 24 24" fill="none" xmlns="http://www.w3.org/2000/svg">
<path fill-rule="evenodd" clip-rule="evenodd" d="M6 3C3.79086 3 2 4.79086 2 7V17C2 19.2091 3.79086 21 6 21H18C20.2091 21 22 19.2091 22 17V7C22 4.79086 20.2091 3 18 3H6ZM4.49274 5.68536C4.85937 5.26536 5.3987 5 6 5H18C18.6013 5 19.1406 5.26535 19.5073 5.68535L12.9713 9.31645C12.3672 9.65203 11.6327 9.65203 11.0287 9.31645L4.49274 5.68536ZM4 7.69953V17C4 18.1046 4.89543 19 6 19H18C19.1046 19 20 18.1046 20 17V7.69952L13.9426 11.0648C12.7345 11.7359 11.2655 11.7359 10.0574 11.0648L4 7.69953Z" fill="black"/>
</svg>







