<svg width="24" height="24" viewBox="0 0 24 24" fill="none" xmlns="http://www.w3.org/2000/svg">
<path fill-rule="evenodd" clip-rule="evenodd" d="M3.4444 19L19.3333 3.99998L20.7876 5.37292L4.89871 20.3729L3.4444 19Z" fill="black"/>
<path fill-rule="evenodd" clip-rule="evenodd" d="M9.3143 17.673C10.1739 17.7861 11.0736 17.8461 12 17.8461C18.0751 17.8461 23 15.2632 23 12.0769C23 10.447 21.7113 8.97495 19.6391 7.92578L18.0721 9.40511C18.3469 9.51974 18.6064 9.64126 18.8492 9.76862C20.5936 10.6835 21 11.5994 21 12.0769C21 12.5544 20.5936 13.4703 18.8492 14.3852C17.199 15.2507 14.7807 15.8461 12 15.8461C11.7518 15.8461 11.5064 15.8414 11.2642 15.8321L9.3143 17.673ZM8.66038 15.5444C7.28983 15.2869 6.09466 14.8802 5.15076 14.3852C3.40644 13.4703 3 12.5544 3 12.0769C3 11.5994 3.40644 10.6835 5.15076 9.76862C6.80099 8.90312 9.21927 8.30768 12 8.30768C13.4057 8.30768 14.7188 8.45985 15.8869 8.72215L17.5958 7.10889C15.9564 6.59985 14.0432 6.30768 12 6.30768C5.92487 6.30768 1 8.89065 1 12.0769C1 14.3007 3.39888 16.2306 6.91344 17.1936L8.66038 15.5444Z" fill="black"/>
<ellipse cx="12" cy="12.0769" rx="2.44444" ry="2.30769" fill="black"/>
</svg>








