<svg width="253" height="228" viewBox="0 0 253 228" fill="none" xmlns="http://www.w3.org/2000/svg">
<rect x="56" y="192" width="50" height="17" stroke="#F2A500" stroke-width="2"/>
<rect x="81" y="209" width="50" height="17" stroke="#F2A500" stroke-width="2"/>
<rect x="31" y="209" width="50" height="17" stroke="#F2A500" stroke-width="2"/>
<path d="M53 59C53 54.0294 57.0294 50 62 50H200C204.971 50 209 54.0294 209 59V97.1702C209 102.141 204.971 106.17 200 106.17H146.432C143.434 106.17 140.634 107.663 138.962 110.151L135.98 114.588C133.603 118.126 128.397 118.126 126.02 114.588L123.038 110.151C121.366 107.663 118.566 106.17 115.568 106.17H62C57.0294 106.17 53 102.141 53 97.1702V59Z" fill="#FFBD2F"/>
<path d="M90.5852 71H87.4148V75.2883L83.9481 73.9714L83 77.2805L86.4963 78.5636L84.3333 81.9065L86.7926 84L88.9852 80.5896L91.237 84L93.6963 81.9403L91.5037 78.5636L95 77.2805L94.0222 73.9714L90.5852 75.2883V71Z" fill="black"/>
<path d="M146.585 71H143.415V75.2883L139.948 73.9714L139 77.2805L142.496 78.5636L140.333 81.9065L142.793 84L144.985 80.5896L147.237 84L149.696 81.9403L147.504 78.5636L151 77.2805L150.022 73.9714L146.585 75.2883V71Z" fill="black"/>
<path d="M118.585 71H115.415V75.2883L111.948 73.9714L111 77.2805L114.496 78.5636L112.333 81.9065L114.793 84L116.985 80.5896L119.237 84L121.696 81.9403L119.504 78.5636L123 77.2805L122.022 73.9714L118.585 75.2883V71Z" fill="black"/>
<path d="M174.585 71H171.415V75.2883L167.948 73.9714L167 77.2805L170.496 78.5636L168.333 81.9065L170.793 84L172.985 80.5896L175.237 84L177.696 81.9403L175.504 78.5636L179 77.2805L178.022 73.9714L174.585 75.2883V71Z" fill="black"/>
<rect x="101" y="133" width="57" height="94" rx="8" fill="white" stroke="black" stroke-width="2"/>
<path fill-rule="evenodd" clip-rule="evenodd" d="M119.027 134C119.276 136.25 121.184 138 123.5 138H136.5C138.816 138 140.724 136.25 140.973 134H138.95C138.718 135.141 137.709 136 136.5 136H123.5C122.291 136 121.282 135.141 121.05 134H119.027Z" fill="black"/>
<rect x="123" y="221" width="14" height="2" rx="1" fill="black"/>
<path d="M129 178C129 175.239 131.239 173 134 173H152H170C172.761 173 175 175.239 175 178V211.426C175 213.261 173.995 214.949 172.381 215.823L154.381 225.573C152.896 226.378 151.104 226.378 149.619 225.573L131.619 215.823C130.005 214.949 129 213.261 129 211.426V178Z" fill="#FFBD2F" stroke="black" stroke-width="2"/>
<circle cx="153.5" cy="195.5" r="9.5" fill="black"/>
<path d="M150 195.529L152.333 198L158 192" stroke="white" stroke-width="2"/>
<path d="M27.4239 91.9256L25.4273 82.9527L16.4543 84.9493L14.4577 75.9764L5.48478 77.973L3.48815 69.0001" stroke="#F2A500" stroke-width="4"/>
<path opacity="0.3" d="M40.91 167.178L32.7111 163.021L28.5545 171.22L20.3555 167.064L16.1989 175.263L8 171.106" stroke="#F2A500" stroke-width="4"/>
<path d="M231.781 199.734C229.311 198.214 226.338 197.736 223.517 198.407C220.695 199.078 218.255 200.843 216.734 203.312C215.214 205.782 214.736 208.755 215.407 211.577C216.078 214.398 217.842 216.838 220.312 218.359L222.319 215.099C220.714 214.111 219.567 212.525 219.131 210.691C218.695 208.857 219.005 206.925 219.994 205.32C220.982 203.714 222.568 202.567 224.402 202.131C226.236 201.695 228.168 202.006 229.774 202.994L231.781 199.734Z" fill="black"/>
<path opacity="0.3" d="M138.953 22.117C140.746 19.8371 141.56 16.9383 141.216 14.0584C140.871 11.1784 139.397 8.55322 137.117 6.76028C134.837 4.96734 131.938 4.15353 129.058 4.49788C126.178 4.84222 123.553 6.31652 121.76 8.59644L124.769 10.9628C125.935 9.4809 127.641 8.52266 129.513 8.29885C131.385 8.07504 133.269 8.60398 134.751 9.76933C136.233 10.9347 137.191 12.641 137.415 14.5128C137.638 16.3847 137.109 18.2688 135.944 19.7507L138.953 22.117Z" fill="#F2A500"/>
<path d="M236 65.6939L250.756 63L242.043 73.7394L236 65.6939Z" stroke="black"/>
<path d="M231 167V152L240 162.5L231 167Z" fill="#FFBD2F" stroke="black"/>
</svg>
