<svg width="414" height="382" viewBox="0 0 414 382" fill="none" xmlns="http://www.w3.org/2000/svg">
<path d="M177 132.5L172.5 121L179 119L180 123.5L177 132.5Z" fill="black"/>
<path d="M321.165 58.3363C311.509 67.9921 296.459 68.9664 285.715 61.2592C284.509 60.3943 280.176 61.8948 279.092 60.8112C277.76 59.4793 279.775 55.5699 278.774 54.0582C271.7 43.3807 272.866 28.853 282.274 19.4454C293.013 8.70602 310.425 8.70602 321.165 19.4454C331.904 30.1849 331.904 47.5969 321.165 58.3363Z" fill="white"/>
<path d="M292 36H312V42.5C312 44.433 310.433 46 308.5 46H295.5C293.567 46 292 44.433 292 42.5V36Z" fill="#FFBD2F"/>
<path d="M312 36.5C312 38.433 310.433 40 308.5 40L295.5 40C293.567 40 292 38.433 292 36.5L292 35.5C292 33.567 293.567 32 295.5 32L308.5 32C310.433 32 312 33.567 312 35.5L312 36.5Z" fill="#FFBD2F"/>
<path d="M300 36.5C299.724 36.5 299.5 36.7239 299.5 37C299.5 37.2761 299.724 37.5 300 37.5V36.5ZM300 33.5C299.724 33.5 299.5 33.7239 299.5 34C299.5 34.2761 299.724 34.5 300 34.5V33.5ZM306.5 36.5H300V37.5H306.5V36.5ZM300 34.5H306.5V33.5H300V34.5ZM307.5 35.5C307.5 36.0523 307.052 36.5 306.5 36.5V37.5C307.605 37.5 308.5 36.6046 308.5 35.5H307.5ZM308.5 35.5C308.5 34.3954 307.605 33.5 306.5 33.5V34.5C307.052 34.5 307.5 34.9477 307.5 35.5H308.5Z" fill="black"/>
<path d="M306 31H299C297.343 31 296 32.3431 296 34V34C296 35.6569 297.343 37 299 37H301" stroke="black" stroke-linecap="round"/>
<path d="M168 156L193.5 153.5L219 156V322H168V156Z" fill="#FFD987"/>
<mask id="mask0" mask-type="alpha" maskUnits="userSpaceOnUse" x="168" y="153" width="51" height="169">
<path d="M168 156L193.5 153.5L219 156V322H168V156Z" fill="#FFD987"/>
</mask>
<g mask="url(#mask0)">
<circle cx="194.5" cy="153.5" r="21.5" stroke="black"/>
</g>
<path d="M168 156L154.581 157.345C133.881 159.42 118.12 176.84 118.12 197.643V321.5H168.12L168 156Z" fill="black"/>
<path d="M219 156L232.419 157.345C253.119 159.42 268.88 176.84 268.88 197.643V321.5H218.88L219 156Z" fill="black"/>
<path d="M154.291 213.917C161.883 200.767 153.821 184.104 138.798 181.896L122.5 179.5L66.3768 279.646C60.6243 289.91 64.3096 302.96 74.5 308.844C84.7833 314.781 98.0516 311.326 103.989 301.043L154.291 213.917Z" fill="black"/>
<rect x="177" y="104" width="35" height="66" rx="17.5" fill="white"/>
<path d="M227 106C231.5 98.5 229.5 84.5 229.5 84.5L229 82.5L218.5 86C218.5 86 222.5 117 227 106Z" fill="black"/>
<path d="M177 98C177 84.1929 188.193 73 202 73C215.807 73 227 84.1929 227 98V118C227 131.807 215.807 143 202 143H177V122L171.19 120.659C166.981 119.688 164 115.94 164 111.621C164 105.125 172.113 102.173 176.287 107.15L177 108V98Z" fill="white"/>
<path d="M189 141C201.5 145.5 212 141 212 141V149C212 149 197.5 148.5 189 141Z" fill="#8B8989"/>
<path d="M174 115.5C174 108 167.5 109.5 167.5 109.5" stroke="black"/>
<path d="M197 123C197 123 200.5 129.5 208.5 127" stroke="black"/>
<circle cx="199.5" cy="108.5" r="2.5" fill="black"/>
<circle cx="219.5" cy="108.5" r="2.5" fill="black"/>
<ellipse cx="196.761" cy="96.7629" rx="7.5" ry="2" transform="rotate(-14.067 196.761 96.7629)" fill="black"/>
<ellipse rx="7.5" ry="2" transform="matrix(-0.970012 -0.243056 -0.243056 0.970012 220.761 96.7629)" fill="black"/>
<path d="M209.5 108.5H213L215.5 120.5H206.5L209.5 108.5Z" fill="black"/>
<path d="M177.997 112.834C177.98 112.179 177.86 109.72 177 108C176 106 175 105 172 104.5C169 104 166.5 106 166.5 106C166.5 106 152.5 78.5001 174.5 61.9999C196.5 45.4998 225.5 59 232.5 84.4999C232.5 84.4999 215.5 93.4999 186.5 85.4999C177.979 92.6001 177.973 110.903 177.997 112.834C178 112.941 178 113 178 113C178 113 177.998 112.943 177.997 112.834Z" fill="black"/>
<circle cx="166.5" cy="61.5" r="14.5" fill="black"/>
<path d="M217 103.919L239.44 96.3145V117.684L217 110.079V103.919Z" fill="#8B8989"/>
<path d="M289.474 129.39L258.334 136.359L293.681 240.393C297.472 251.549 309.841 257.245 320.782 252.875C331.601 248.552 336.673 236.115 331.96 225.46L289.474 129.39Z" fill="black"/>
<path d="M258.5 137.5L251.308 127.997L243.313 118.418L246.807 115.25L258.045 120.368L255.756 111.925L241.169 101.042L249.656 89.4136L269.318 97.0562L283.405 130.411L258.5 137.5Z" fill="white"/>
<path d="M246.888 92.9289L265.66 101.879L267.739 109.222M244.219 96.8505C244.604 96.9594 254.698 103.28 259.696 106.427L262.392 113.425" stroke="black"/>
<circle cx="242.08" cy="107" r="10.5" fill="black" stroke="white"/>
<path d="M195 103.919L217.44 96.3147V117.684L195 110.079C195 110.079 193 109.499 193 106.999C193 104.5 195 103.919 195 103.919Z" fill="#8B8989"/>
<circle cx="220.08" cy="107" r="10.5" fill="black" stroke="white"/>
<path d="M257.771 168.819C245.85 160.094 228.884 165.714 224.529 179.831L219.469 196.23L298.779 252.503C308.363 259.303 321.722 257.023 328.662 247.541C335.675 237.958 333.685 224.378 324.103 217.365L257.771 168.819Z" fill="black"/>
<path d="M225.5 156.5L225.5 322" stroke="white"/>
<path d="M160.5 156.5L160.5 322" stroke="white"/>
<path d="M203.468 209.812C203.766 208.238 205.247 207.175 206.834 207.398L232.706 211.037C234.468 211.285 235.628 213.002 235.201 214.729L223.594 261.599C223.249 262.993 221.964 263.947 220.53 263.874L196.935 262.675C195.118 262.582 193.801 260.908 194.139 259.121L203.468 209.812Z" fill="#00C2FF"/>
<path d="M258.499 137L283.999 213.5" stroke="white"/>
<path d="M186.762 267.378L179.263 236.378L78.208 272.172C67.1042 276.106 61.5741 288.55 66.0965 299.427C70.5675 310.18 83.0733 315.072 93.6535 310.205L186.762 267.378Z" fill="black"/>
<path d="M177.685 237.462L105.967 262.524" stroke="white"/>
<path d="M177.5 237L200.5 226L199 235L217.5 228.5L219.5 247.5L185 261L177.5 237Z" fill="white"/>
<mask id="mask1" mask-type="alpha" maskUnits="userSpaceOnUse" x="177" y="226" width="43" height="35">
<path d="M177.5 237L200.5 226L199 235L217.5 228.5L219.5 247.5L185 261L177.5 237Z" fill="white"/>
</mask>
<g mask="url(#mask1)">
<path d="M203.803 238.54L218.5 232" stroke="black"/>
<line x1="204.803" y1="243.54" x2="218.803" y2="237.54" stroke="black"/>
<line x1="205.803" y1="248.54" x2="219.803" y2="242.54" stroke="black"/>
</g>
<mask id="mask2" mask-type="alpha" maskUnits="userSpaceOnUse" x="213" y="123" width="129" height="144">
<path d="M289.474 129.39L258.334 136.359L293.681 240.393C297.471 251.549 309.841 257.245 320.782 252.875C331.601 248.552 336.672 236.115 331.96 225.46L289.474 129.39Z" fill="black"/>
<path d="M257.771 168.819C245.85 160.094 228.884 165.714 224.529 179.831L219.469 196.23L298.779 252.503C308.363 259.303 321.722 257.023 328.662 247.541C335.675 237.958 333.685 224.378 324.103 217.365L257.771 168.819Z" fill="black"/>
</mask>
<g mask="url(#mask2)">
<circle cx="322.5" cy="247.5" r="12.5" fill="white"/>
</g>
<mask id="mask3" mask-type="alpha" maskUnits="userSpaceOnUse" x="58" y="179" width="135" height="140">
<path d="M154.291 213.917C161.883 200.767 153.821 184.104 138.798 181.896L122.5 179.5L66.3766 279.646C60.624 289.91 64.3093 302.96 74.4997 308.844C84.783 314.781 98.0513 311.326 103.988 301.043L154.291 213.917Z" fill="black"/>
<path d="M186.762 267.378L179.263 236.378L78.2077 272.172C67.104 276.106 61.5738 288.55 66.0963 299.427C70.5673 310.18 83.0731 315.072 93.6533 310.205L186.762 267.378Z" fill="black"/>
</mask>
<g mask="url(#mask3)">
<circle cx="70.5" cy="299.5" r="12.5" fill="white"/>
</g>
<path d="M162 85.5C162 69.2076 175.208 55.5 191.5 55.5" stroke="white"/>
<path d="M88.5 58C102.583 58 114 69.4167 114 83.5L114 105C114 107.209 112.209 109 110 109L88.5 109C74.4167 109 63 97.5833 63 83.5C63 69.4167 74.4167 58 88.5 58Z" fill="black"/>
<path d="M80 85H97V89C97 90.6569 95.6569 92 94 92H83C81.3431 92 80 90.6569 80 89V85Z" fill="white"/>
<path d="M80 84.4389H97V85.0001C97 86.657 95.6569 88.0001 94 88.0001H83C81.3431 88.0001 80 86.657 80 85.0001V84.4389Z" fill="#FFBD2F"/>
<path d="M96.9434 84.4434C96.9434 82.2041 96.0539 80.0565 94.4704 78.473C92.887 76.8896 90.7394 76 88.5 76C86.2607 76 84.1131 76.8896 82.5297 78.473C80.9462 80.0565 80.0566 82.2041 80.0566 84.4434L88.5 84.4434H96.9434Z" fill="white"/>
<path d="M207.007 9.87793C206.723 8.72327 207.346 7.73407 208.388 7.47807C209.458 7.21514 210.44 7.80996 210.724 8.96463C211.008 10.1193 210.42 11.1297 209.35 11.3927C208.308 11.6487 207.297 11.0608 207.007 9.87793ZM204.19 10.5698C204.82 13.1326 207.43 14.6414 209.993 14.0118C212.528 13.3891 214.212 10.8849 213.568 8.26581C212.932 5.67486 210.265 4.17992 207.731 4.80263C205.196 5.42533 203.554 7.97887 204.19 10.5698ZM221.694 16.5423C221.41 15.3876 222.033 14.3984 223.075 14.1424C224.145 13.8795 225.127 14.4743 225.411 15.629C225.695 16.7836 225.107 17.7941 224.037 18.057C222.995 18.313 221.984 17.7251 221.694 16.5423ZM218.877 17.2342C219.507 19.7969 222.117 21.3057 224.68 20.6761C227.215 20.0534 228.899 17.5493 228.256 14.9301C227.619 12.3392 224.952 10.8442 222.418 11.467C219.883 12.0897 218.241 14.6432 218.877 17.2342ZM213.649 23.0578L222.057 1.61142L218.79 2.41402L210.382 23.8604L213.649 23.0578Z" fill="black"/>
<path d="M54.7196 321.979C55.288 321.355 56.0928 321 56.9365 321H357.739C358.589 321 359.399 321.361 359.968 321.993L409.491 376.993C411.229 378.923 409.859 382 407.262 382H6.79463C4.18819 382 2.82164 378.905 4.57764 376.979L54.7196 321.979Z" fill="#F2A500"/>
<ellipse cx="197" cy="342.5" rx="50" ry="14.5" fill="white" stroke="black"/>
<ellipse cx="197" cy="341.5" rx="50" ry="13.5" fill="white" stroke="black"/>
<ellipse cx="197" cy="340.5" rx="33" ry="8.5" stroke="black"/>
<path d="M258.843 341.671L255.547 305H287.453L284.157 341.671C283.809 345.538 280.569 348.5 276.687 348.5H266.313C262.431 348.5 259.191 345.538 258.843 341.671Z" fill="white" stroke="black"/>
<path d="M290.5 303C290.5 303.411 290.165 303.939 289.208 304.519C288.282 305.081 286.907 305.604 285.164 306.051C281.687 306.943 276.855 307.5 271.5 307.5C266.145 307.5 261.313 306.943 257.836 306.051C256.093 305.604 254.718 305.081 253.792 304.519C252.835 303.939 252.5 303.411 252.5 303C252.5 302.589 252.835 302.061 253.792 301.481C254.718 300.919 256.093 300.396 257.836 299.949C261.313 299.057 266.145 298.5 271.5 298.5C276.855 298.5 281.687 299.057 285.164 299.949C286.907 300.396 288.282 300.919 289.208 301.481C290.165 302.061 290.5 302.589 290.5 303Z" fill="white" stroke="black"/>
<path d="M290.5 302C290.5 302.099 290.453 302.249 290.25 302.453C290.045 302.658 289.717 302.88 289.249 303.107C288.317 303.559 286.936 303.98 285.188 304.339C281.701 305.054 276.862 305.5 271.5 305.5C266.138 305.5 261.299 305.054 257.812 304.339C256.064 303.98 254.683 303.559 253.751 303.107C253.283 302.88 252.955 302.658 252.75 302.453C252.547 302.249 252.5 302.099 252.5 302C252.5 301.901 252.547 301.751 252.75 301.547C252.955 301.342 253.283 301.12 253.751 300.893C254.683 300.441 256.064 300.02 257.812 299.661C261.299 298.946 266.138 298.5 271.5 298.5C276.862 298.5 281.701 298.946 285.188 299.661C286.936 300.02 288.317 300.441 289.249 300.893C289.717 301.12 290.045 301.342 290.25 301.547C290.453 301.751 290.5 301.901 290.5 302Z" fill="white" stroke="black"/>
<path d="M286.503 300.477C286.503 300.477 286.503 300.478 286.502 300.479L286.503 300.477ZM286.376 300.389C286.442 300.441 286.474 300.478 286.49 300.5C286.474 300.522 286.442 300.559 286.376 300.611C286.226 300.729 285.975 300.864 285.604 301.006C284.866 301.287 283.77 301.55 282.381 301.774C279.609 302.221 275.762 302.5 271.5 302.5C267.238 302.5 263.391 302.221 260.619 301.774C259.23 301.55 258.134 301.287 257.396 301.006C257.025 300.864 256.774 300.729 256.624 300.611C256.558 300.559 256.526 300.522 256.51 300.5C256.526 300.478 256.558 300.441 256.624 300.389C256.774 300.271 257.025 300.136 257.396 299.994C258.134 299.713 259.23 299.45 260.619 299.226C263.391 298.779 267.238 298.5 271.5 298.5C275.762 298.5 279.609 298.779 282.381 299.226C283.77 299.45 284.866 299.713 285.604 299.994C285.975 300.136 286.226 300.271 286.376 300.389ZM256.497 300.477C256.497 300.477 256.497 300.478 256.498 300.479L256.497 300.477ZM256.497 300.523C256.497 300.523 256.497 300.522 256.498 300.521L256.497 300.523ZM286.502 300.521C286.503 300.522 286.503 300.523 286.503 300.523L286.502 300.521Z" fill="white" stroke="black"/>
<path d="M257 316C257 316 263 319 271.5 319C280 319 286 316 286 316L285 334C285 334 280 336.5 271.5 336.5C263 336.5 258 334 258 334L257 316Z" fill="black"/>
</svg>
