<svg width="82" height="82" viewBox="0 0 82 82" fill="none" xmlns="http://www.w3.org/2000/svg">
<circle cx="41" cy="41" r="41" fill="#F2A500"/>
<mask id="mask0" mask-type="alpha" maskUnits="userSpaceOnUse" x="0" y="0" width="82" height="82">
<circle cx="41" cy="41" r="41" fill="#F2A500"/>
</mask>
<g mask="url(#mask0)">
<path d="M31.5621 44.15L39.5513 43.3667L47.5405 44.15V96.1579H31.5621V44.15Z" fill="#FFD987"/>
<mask id="mask1" mask-type="alpha" maskUnits="userSpaceOnUse" x="31" y="43" width="17" height="54">
<path d="M31.5621 44.15L39.5513 43.3667L47.5405 44.15V96.1579H31.5621V44.15Z" fill="#FFD987"/>
</mask>
<g mask="url(#mask1)">
<circle cx="39.8646" cy="43.3668" r="6.73597" stroke="black"/>
</g>
<path d="M31.5622 44.1499C22.6901 45.0392 15.9347 52.5056 15.9347 61.4221V96.0012H31.5998L31.5622 44.1499Z" fill="black"/>
<path d="M47.5405 44.1499C56.4126 45.0392 63.1679 52.5056 63.1679 61.4221V96.0012H47.5029L47.5405 44.1499Z" fill="black"/>
<path d="M25.5218 65.3181C28.7665 59.6982 25.4008 52.5674 19 51.5L-0.00107127 82.8676C-1.93669 86.063 -0.868279 90.225 2.36713 92.093C5.555 93.9335 9.63131 92.8413 11.4718 89.6534L25.5218 65.3181Z" fill="black"/>
<path d="M62.1917 55.301C59.3451 50.3705 52.1906 50.4827 49.5 55.5L64.9733 86.2649C66.6632 89.6249 70.8315 90.8715 74.0887 88.991C77.2176 87.1845 78.2897 83.1835 76.4832 80.0545L62.1917 55.301Z" fill="black"/>
<rect x="34.3818" y="27.8582" width="10.9655" height="20.6779" rx="5.48277" fill="white"/>
<path d="M50.0468 28.4846C51.4567 26.1349 50.8301 21.7487 50.8301 21.7487L50.6734 21.1221L47.3838 22.2186C47.3838 22.2186 48.637 31.931 50.0468 28.4846Z" fill="black"/>
<path d="M34.3818 25.9783C34.3818 21.6525 37.8885 18.1458 42.2143 18.1458C46.5401 18.1458 50.0468 21.6525 50.0468 25.9783V32.2041C50.0468 36.5521 46.5221 40.0768 42.1741 40.0768H34.3818V33.4975L32.5615 33.0774C31.2429 32.7732 30.3088 31.599 30.3088 30.2457C30.3088 28.2105 32.8506 27.2857 34.1585 28.8451L34.3818 29.1113V25.9783Z" fill="white"/>
<path d="M38.1414 39.4502C42.0577 40.86 45.3472 39.4502 45.3472 39.4502V41.9566C45.3472 41.9566 40.8045 41.8 38.1414 39.4502Z" fill="#C4C4C4"/>
<path d="M33.4419 31.4612C33.4419 29.1114 31.4054 29.5813 31.4054 29.5813" stroke="black"/>
<path d="M40.6478 33.8108C40.6478 33.8108 41.7443 35.8472 44.2507 35.064" stroke="black"/>
<circle cx="41.431" cy="29.2681" r="0.783252" fill="black"/>
<circle cx="47.6971" cy="29.2681" r="0.783252" fill="black"/>
<ellipse cx="40.573" cy="25.5906" rx="2.34976" ry="0.626602" transform="rotate(-14.067 40.573 25.5906)" fill="black"/>
<ellipse rx="2.34976" ry="0.626602" transform="matrix(-0.970012 -0.243056 -0.243056 0.970012 48.0922 25.5906)" fill="black"/>
<path d="M44.564 29.2681H45.6606L46.4439 33.0277H43.6241L44.564 29.2681Z" fill="black"/>
<path d="M34.6942 30.626C34.6889 30.4208 34.6511 29.6502 34.3817 29.1114C34.0684 28.4848 33.7551 28.1715 32.8152 28.0149C31.8753 27.8582 31.0921 28.4848 31.0921 28.4848C31.0921 28.4848 26.7058 19.8691 33.5985 14.6996C40.4912 9.53007 49.5769 13.7597 51.7699 21.7488C51.7699 21.7488 46.4438 24.5685 37.3581 22.0621C34.6887 24.2866 34.6868 30.021 34.6942 30.626C34.695 30.6595 34.695 30.6779 34.695 30.6779C34.695 30.6779 34.6946 30.6601 34.6942 30.626Z" fill="black"/>
<circle cx="31.0921" cy="14.5429" r="4.54286" fill="black"/>
<path d="M49.5768 44.3064L49.5768 96.1577" stroke="white"/>
<path d="M29.2123 44.3064L29.2123 96.1577" stroke="white"/>
<path d="M29.6823 22.0621C29.6823 16.9577 33.8202 12.6631 38.9246 12.6631" stroke="white"/>
</g>
</svg>

