<svg width="286" height="313" viewBox="0 0 286 313" fill="none" xmlns="http://www.w3.org/2000/svg">
<rect x="26" y="193" width="50" height="17" stroke="#F2A500" stroke-width="2"/>
<rect x="51" y="210" width="50" height="17" stroke="#F2A500" stroke-width="2"/>
<rect x="1" y="210" width="50" height="17" stroke="#F2A500" stroke-width="2"/>
<rect x="78" y="129" width="138" height="98" rx="8" fill="white" stroke="black" stroke-width="2"/>
<path d="M199 197C199 180.431 212.431 167 229 167C245.569 167 259 180.431 259 197C259 213.569 245.569 227 229 227H207C202.582 227 199 223.418 199 219V197Z" fill="#FFBD2F" stroke="black" stroke-width="2"/>
<path d="M230.585 192H227.415V196.288L223.948 194.971L223 198.281L226.496 199.564L224.333 202.906L226.793 205L228.985 201.59L231.237 205L233.696 202.94L231.504 199.564L235 198.281L234.022 194.971L230.585 196.288V192Z" fill="black"/>
<path d="M132 152C132 150.343 133.343 149 135 149H152H169C170.657 149 172 150.343 172 152V183.146C172 184.282 171.358 185.321 170.342 185.829L153.342 194.329C152.497 194.751 151.503 194.751 150.658 194.329L133.658 185.829C132.642 185.321 132 184.282 132 183.146V152Z" fill="#FFBD2F"/>
<path d="M128 156C128 154.895 128.895 154 130 154H147H164C165.105 154 166 154.895 166 156V187.146C166 187.903 165.572 188.596 164.894 188.935L147.894 197.435C147.331 197.716 146.669 197.716 146.106 197.435L129.106 188.935C128.428 188.596 128 187.903 128 187.146V156Z" fill="#FFBD2F" stroke="black" stroke-width="2"/>
<path d="M143 174L146.5 177.5L155 169" stroke="black" stroke-width="2"/>
<path d="M183 128V113C183 93.1177 166.882 77 147 77V77C127.118 77 111 93.1177 111 113V128" stroke="#FFBD2F" stroke-width="12"/>
<path d="M176 128V113C176 96.9837 163.016 84 147 84V84C130.984 84 118 96.9837 118 113V128" stroke="black" stroke-width="2"/>
<line x1="208.302" y1="107.698" x2="202.716" y2="113.425" stroke="black" stroke-width="2"/>
<line x1="212.8" y1="118.424" x2="204.8" y2="118.523" stroke="black" stroke-width="2"/>
<line y1="-1" x2="8" y2="-1" transform="matrix(0.0124456 0.999923 0.999923 -0.0124456 198 103)" stroke="black" stroke-width="2"/>
<path d="M46.4239 87.9251L44.4273 78.9522L35.4543 80.9488L33.4577 71.9759L24.4848 73.9725L22.4881 64.9996" stroke="#F2A500" stroke-width="4"/>
<path d="M285.459 71.0795L276.319 72.0601L277.299 81.2L268.159 82.1806L269.14 91.3206L260 92.3012" stroke="#F2A500" stroke-width="4"/>
<path opacity="0.3" d="M93.91 266.177L85.7111 262.021L81.5545 270.22L73.3555 266.063L69.1989 274.262L61 270.105" stroke="#F2A500" stroke-width="4"/>
<path d="M42.2671 135.8L33.6009 138.865L36.6662 147.532L28 150.597" stroke="black" stroke-width="4"/>
<path d="M244.781 265.734C242.311 264.213 239.338 263.736 236.517 264.407C233.695 265.078 231.255 266.842 229.734 269.312C228.214 271.782 227.736 274.754 228.407 277.576C229.078 280.398 230.842 282.838 233.312 284.358L235.319 281.099C233.714 280.11 232.567 278.525 232.131 276.691C231.695 274.856 232.005 272.924 232.994 271.319C233.982 269.714 235.568 268.567 237.402 268.131C239.236 267.695 241.168 268.005 242.774 268.994L244.781 265.734Z" fill="black"/>
<path opacity="0.3" d="M128.643 22.117C130.436 19.8371 131.25 16.9383 130.905 14.0584C130.561 11.1784 129.087 8.55322 126.807 6.76028C124.527 4.96734 121.628 4.15353 118.748 4.49788C115.868 4.84222 113.243 6.31652 111.45 8.59644L114.459 10.9628C115.625 9.4809 117.331 8.52266 119.203 8.29885C121.075 8.07504 122.959 8.60398 124.44 9.76933C125.922 10.9347 126.881 12.641 127.104 14.5128C127.328 16.3847 126.799 18.2688 125.634 19.7507L128.643 22.117Z" fill="#F2A500"/>
<path d="M198.314 35.4205L213.07 32.7266L204.357 43.466L198.314 35.4205Z" stroke="black"/>
<path d="M149 312V297L158 307.5L149 312Z" fill="#FFBD2F" stroke="black"/>
</svg>
