<svg width="115" height="110" viewBox="0 0 115 110" fill="none" xmlns="http://www.w3.org/2000/svg">
<path d="M44.6705 43.4737L54.841 42.4766L65.0114 43.4737V109.681H44.6705V43.4737Z" fill="#FFD987"/>
<mask id="mask0" mask-type="alpha" maskUnits="userSpaceOnUse" x="44" y="42" width="22" height="68">
<path d="M44.6705 43.4737L54.841 42.4766L65.0114 43.4737V109.681H44.6705V43.4737Z" fill="#FFD987"/>
</mask>
<g mask="url(#mask0)">
<circle cx="55.2398" cy="42.4764" r="8.57507" stroke="black"/>
</g>
<path d="M44.6706 43.4736C33.3762 44.6058 24.7765 54.1107 24.7765 65.4616V109.482H44.7185L44.6706 43.4736Z" fill="black"/>
<path d="M65.0114 43.4736C76.3058 44.6058 84.9055 54.1107 84.9055 65.4616V109.482H64.9635L65.0114 43.4736Z" fill="black"/>
<path d="M36.6775 70.9474C40.7864 63.8306 36.0889 54.8587 27.899 54.1814L4.49577 92.763C2.02889 96.8297 3.38767 102.13 7.50692 104.508C11.5639 106.85 16.7515 105.46 19.0938 101.403L36.6775 70.9474Z" fill="black"/>
<rect x="48.2601" y="22.7339" width="13.9594" height="26.3235" rx="6.97971" fill="white"/>
<path d="M68.202 23.5317C69.9968 20.5404 69.1991 14.9566 69.1991 14.9566L68.9997 14.1589L64.8119 15.5549C64.8119 15.5549 66.4073 27.9189 68.202 23.5317Z" fill="black"/>
<path d="M48.26 20.3409C48.26 14.834 52.7242 10.3699 58.231 10.3699C63.7378 10.3699 68.202 14.834 68.202 20.3409V24.3293C68.202 32.0389 61.9522 38.2887 54.2426 38.2887H48.26V29.913L45.9428 29.3783C44.2642 28.9909 43.0751 27.4962 43.0751 25.7734C43.0751 23.1826 46.3109 22.0053 47.9757 23.9904L48.26 24.3293V20.3409Z" fill="white"/>
<path d="M53.0461 37.491C58.0316 39.2857 62.2193 37.491 62.2193 37.491V40.6817C62.2193 40.6817 56.4362 40.4823 53.0461 37.491Z" fill="#C4C4C4"/>
<path d="M47.0635 27.3206C47.0635 24.3293 44.471 24.9275 44.471 24.9275" stroke="black"/>
<path d="M56.2368 30.312C56.2368 30.312 57.6328 32.9045 60.8235 31.9074" stroke="black"/>
<circle cx="57.2339" cy="24.5288" r="0.997101" fill="black"/>
<circle cx="65.2107" cy="24.5288" r="0.997101" fill="black"/>
<ellipse cx="56.1416" cy="19.8475" rx="2.9913" ry="0.797681" transform="rotate(-14.067 56.1416 19.8475)" fill="black"/>
<ellipse rx="2.9913" ry="0.797681" transform="matrix(-0.970012 -0.243056 -0.243056 0.970012 65.7137 19.8475)" fill="black"/>
<path d="M61.2223 24.5286H62.6183L63.6154 29.3146H60.0258L61.2223 24.5286Z" fill="black"/>
<path d="M48.6576 26.2574C48.6509 25.9961 48.6028 25.0152 48.2599 24.3293C47.861 23.5316 47.4622 23.1328 46.2657 22.9333C45.0691 22.7339 44.072 23.5316 44.072 23.5316C44.072 23.5316 38.4883 12.5636 47.2628 5.98265C56.0374 -0.598274 67.6037 4.78615 70.3955 14.9565C70.3955 14.9565 63.6152 18.5461 52.0489 15.3554C48.6506 18.1872 48.6482 25.4872 48.6576 26.2574C48.6587 26.3 48.6587 26.3235 48.6587 26.3235C48.6587 26.3235 48.6581 26.3008 48.6576 26.2574Z" fill="black"/>
<circle cx="44.0722" cy="5.78318" r="5.78318" fill="black"/>
<path d="M64.2136 22.7015L73.1636 19.6685V28.1914L64.2136 25.1584V22.7015Z" fill="#C4C4C4"/>
<path d="M93.1191 32.8604L80.6992 35.6399L94.7972 77.133C96.309 81.5823 101.242 83.8544 105.606 82.1111C109.921 80.3873 111.944 75.4266 110.064 71.177L93.1191 32.8604Z" fill="black"/>
<path d="M80.7656 36.0951L77.8968 32.3047L74.7082 28.4846L76.102 27.221L80.5839 29.262L79.6712 25.8949L73.8532 21.5542L77.2381 16.9163L85.0801 19.9645L90.6985 33.2677L80.7656 36.0951Z" fill="white"/>
<path d="M76.134 18.3182L83.6212 21.8877L84.4504 24.8166M75.0696 19.8822C75.2232 19.9257 79.2489 22.4466 81.2426 23.7016L82.318 26.4929" stroke="black"/>
<circle cx="74.2166" cy="23.9305" r="3.88724" fill="black" stroke="white"/>
<path d="M55.4392 22.7015L64.3891 19.6685V28.1914L55.4392 25.1584C55.4392 25.1584 54.6415 24.9268 54.6415 23.93C54.6415 22.9331 55.4392 22.7015 55.4392 22.7015Z" fill="#C4C4C4"/>
<circle cx="65.442" cy="23.9305" r="3.88724" fill="black" stroke="white"/>
<path d="M76.3989 48.1812L65.1984 59.5189L96.9416 82.0419C100.702 84.7101 105.908 83.8649 108.632 80.1439C111.474 76.2602 110.497 70.7894 106.486 68.1299L76.3989 48.1812Z" fill="black"/>
<path d="M67.6038 43.6731L67.6038 109.681" stroke="white"/>
<path d="M41.6791 43.6731L41.6791 109.681" stroke="white"/>
<path d="M58.4968 66.626C58.7945 65.0522 60.2761 63.9899 61.8623 64.2129L68.4978 65.146C70.2594 65.3938 71.4197 67.1112 70.9921 68.8379L67.2011 84.1477C66.8559 85.5418 65.5711 86.4957 64.1367 86.4228L58.2756 86.1247C56.4592 86.0324 55.1421 84.358 55.4802 82.5709L58.4968 66.626Z" fill="#00C2FF"/>
<path d="M80.7653 35.8956L90.9356 66.4068" stroke="white"/>
<path d="M52.1535 87.8957L49.1628 75.5316L8.85778 89.8079C4.42915 91.3766 2.22353 96.34 4.02726 100.678C5.81048 104.967 10.7983 106.918 15.0181 104.977L52.1535 87.8957Z" fill="black"/>
<path d="M48.5333 75.9641L19.9291 85.9599" stroke="white"/>
<path d="M48.4594 75.7797L57.6329 71.3924L57.0343 74.982L64.4129 72.3895L65.2106 79.9675L51.4507 85.3519L48.4594 75.7797Z" fill="white"/>
<mask id="mask1" mask-type="alpha" maskUnits="userSpaceOnUse" x="48" y="71" width="18" height="15">
<path d="M48.4594 75.7797L57.6329 71.3924L57.0343 74.982L64.4129 72.3895L65.2106 79.9675L51.4507 85.3519L48.4594 75.7797Z" fill="white"/>
</mask>
<g mask="url(#mask1)">
<path d="M58.9503 76.3939L64.8119 73.7854" stroke="black"/>
<line x1="59.2307" y1="78.112" x2="64.8145" y2="75.7189" stroke="black"/>
<line x1="59.6295" y1="80.1061" x2="65.2133" y2="77.7131" stroke="black"/>
</g>
<mask id="mask2" mask-type="alpha" maskUnits="userSpaceOnUse" x="65" y="32" width="46" height="52">
<path d="M93.1191 32.8604L80.6992 35.6399L94.7972 77.133C96.309 81.5823 101.242 83.8544 105.606 82.1111C109.921 80.3873 111.944 75.4266 110.064 71.177L93.1191 32.8604Z" fill="black"/>
<path d="M70.7639 41.4795L65.1985 59.519L96.7798 81.927C100.63 84.6591 105.961 83.7936 108.749 79.9837C111.567 76.1339 110.73 70.729 106.88 67.9115L70.7639 41.4795Z" fill="black"/>
</mask>
<g mask="url(#mask2)">
<circle cx="106.291" cy="79.9674" r="4.9855" fill="white"/>
</g>
<path d="M36.9017 70.5584C40.9698 63.5121 36.4827 54.6053 28.399 53.681L4.52524 92.7653C2.04432 96.8269 3.39638 102.135 7.51809 104.514C11.5687 106.853 16.7483 105.465 19.0869 101.414L36.9017 70.5584Z" fill="black"/>
<path d="M52.1534 87.8957L49.1627 75.5316L8.85766 89.8079C4.42903 91.3766 2.2234 96.34 4.02714 100.678C5.81036 104.967 10.7982 106.918 15.018 104.977L52.1534 87.8957Z" fill="black"/>
<circle cx="5.78348" cy="100.707" r="4.9855" fill="white"/>
<path d="M42.2774 15.3553C42.2774 8.85728 47.5451 3.39014 54.0432 3.39014" stroke="white"/>
</svg>
