<svg width="178" height="166" viewBox="0 0 178 166" fill="none" xmlns="http://www.w3.org/2000/svg">
<path d="M136.467 50.7148L135.595 49.099L131.556 51.2784L133.063 44.5952L132.226 43.0427L126.079 46.3589L126.951 47.9747L130.785 45.9064L129.299 52.5164L130.162 54.1164L136.467 50.7148Z" fill="#939393"/>
<path d="M150.847 40.8565L150.882 37.5641L142.651 37.4764L150.819 28.2984L150.853 25.1351L138.329 25.0017L138.294 28.2941L146.105 28.3773L138.035 37.4595L138 40.7196L150.847 40.8565Z" fill="#858585"/>
<path d="M177.533 15.7012L174.244 12.4127L166.023 20.634L164.83 3.32078L161.671 0.161188L149.161 12.6706L152.45 15.9591L160.252 8.15688L161.445 25.2767L164.701 28.533L177.533 15.7012Z" fill="black"/>
<ellipse cx="64.5" cy="141.5" rx="50.5" ry="24.5" fill="#FBF0D9"/>
<path d="M33.5 98.5H95.5V133C95.5 140.456 89.4558 146.5 82 146.5H47C39.5442 146.5 33.5 140.456 33.5 133V98.5Z" fill="black" stroke="black"/>
<path d="M0 82H129V99C129 118.882 112.882 135 93 135H36C16.1178 135 0 118.882 0 99V82Z" fill="#F2A500"/>
<rect y="46" width="129" height="72" rx="36" fill="#FFBD2F"/>
<rect x="25" y="69" width="79" height="44" rx="22" fill="#FBF0D9"/>
<circle cx="52.5" cy="86.5" r="2.5" fill="black"/>
<circle cx="77.5" cy="86.5" r="2.5" fill="black"/>
<path d="M74.628 103.054C75.1881 102.904 75.5255 102.326 75.3202 101.783C74.6295 99.9581 73.4406 98.3543 71.8794 97.1602C70.0393 95.7525 67.7852 94.9931 65.4684 95C63.1516 95.007 60.9021 95.7801 59.0704 97.1988C57.5165 98.4023 56.3373 100.013 55.6575 101.843C55.4556 102.386 55.7964 102.962 56.3574 103.109C56.9185 103.256 57.4861 102.917 57.7016 102.378C58.2551 100.996 59.169 99.7787 60.3563 98.859C61.8217 97.7241 63.6212 97.1056 65.4747 97.1C67.3281 97.0945 69.1314 97.702 70.6036 98.8281C71.7964 99.7406 72.7176 100.952 73.2794 102.331C73.4982 102.868 74.0679 103.204 74.628 103.054Z" fill="black"/>
<circle cx="91" cy="94" r="6" fill="#F2A500"/>
<circle cx="40" cy="94" r="6" fill="#F2A500"/>
</svg>
