<svg width="50" height="46" viewBox="0 0 50 46" fill="none" xmlns="http://www.w3.org/2000/svg">
<rect x="30" y="13" width="18.8958" height="32" rx="4" fill="#F2A500" stroke="black" stroke-width="2"/>
<rect x="37" y="40" width="5" height="2" rx="1" fill="black"/>
<path d="M30 10C30 6.68629 27.3137 4 24 4H6C2.68629 4 0 6.68629 0 10V25C0 28.3137 2.68629 31 6 31H11.5V35L18.5 31H24C27.3137 31 30 28.3137 30 25V10Z" fill="#F2A500"/>
<path d="M7 6C7 2.68629 9.68629 0 13 0H31C34.3137 0 37 2.68629 37 6V21C37 24.3137 34.3137 27 31 27H25.5V31L18.5 27H13C9.68629 27 7 24.3137 7 21V6Z" fill="white"/>
<path d="M15 11.5H29V15C29 16.933 27.433 18.5 25.5 18.5H18.5C16.567 18.5 15 16.933 15 15V11.5Z" fill="#FFBD2F"/>
<path d="M29 11.5C29 13.0464 27.7464 14.3 26.2 14.3L17.8 14.3C16.2536 14.3 15 13.0464 15 11.5C15 9.95365 16.2536 8.70005 17.8 8.70005L26.2 8.70005C27.7464 8.70005 29 9.95365 29 11.5Z" fill="#FFD374"/>
<path d="M20.5999 11.7001C20.3238 11.7001 20.0999 11.924 20.0999 12.2001C20.0999 12.4762 20.3238 12.7001 20.5999 12.7001V11.7001ZM20.5999 9.6001C20.3238 9.6001 20.0999 9.82396 20.0999 10.1001C20.0999 10.3762 20.3238 10.6001 20.5999 10.6001V9.6001ZM25.1499 11.7001H20.5999V12.7001H25.1499V11.7001ZM20.5999 10.6001H25.1499V9.6001H20.5999V10.6001ZM25.6999 11.1501C25.6999 11.4539 25.4537 11.7001 25.1499 11.7001V12.7001C26.006 12.7001 26.6999 12.0061 26.6999 11.1501H25.6999ZM26.6999 11.1501C26.6999 10.2941 26.006 9.6001 25.1499 9.6001V10.6001C25.4537 10.6001 25.6999 10.8463 25.6999 11.1501H26.6999Z" fill="black"/>
<path d="M24.8 8H19.9C18.7402 8 17.8 8.9402 17.8 10.1V10.1C17.8 11.2598 18.7402 12.2 19.9 12.2H21.3" stroke="black" stroke-linecap="round"/>
</svg>
