<svg width="350" height="409" viewBox="0 0 350 409" fill="none" xmlns="http://www.w3.org/2000/svg">
<path d="M72 9.00001C72 4.02945 76.0294 0 81 0H219C223.971 0 228 4.02944 228 9V47.1702C228 52.1408 223.971 56.1702 219 56.1702H165.432C162.434 56.1702 159.634 57.6627 157.962 60.1508L154.98 64.5881C152.603 68.1264 147.397 68.1264 145.02 64.5881L142.038 60.1508C140.366 57.6627 137.566 56.1702 134.568 56.1702H81C76.0294 56.1702 72 52.1408 72 47.1702V9.00001Z" fill="#FFBD2F"/>
<path d="M94.1044 29.6V35H96.2644V29.6L100.764 22.238H98.3344L95.2564 27.584L92.1964 22.238H89.6404L94.1044 29.6ZM101.742 29.654C101.814 28.718 102.57 27.71 103.884 27.71C105.324 27.71 106.008 28.628 106.044 29.654H101.742ZM106.278 31.94C105.99 32.804 105.342 33.47 104.082 33.47C102.786 33.47 101.742 32.516 101.688 31.184H108.096C108.114 31.148 108.15 30.86 108.15 30.518C108.15 27.746 106.566 25.964 103.866 25.964C101.652 25.964 99.5998 27.8 99.5998 30.572C99.5998 33.542 101.706 35.27 104.082 35.27C106.188 35.27 107.574 34.028 108.042 32.498L106.278 31.94ZM109.071 32.624C109.179 33.614 110.151 35.27 112.689 35.27C114.921 35.27 116.001 33.794 116.001 32.462C116.001 31.166 115.137 30.158 113.481 29.798L112.149 29.528C111.609 29.42 111.267 29.078 111.267 28.61C111.267 28.07 111.789 27.602 112.527 27.602C113.697 27.602 114.075 28.412 114.147 28.916L115.911 28.412C115.767 27.548 114.975 25.964 112.527 25.964C110.709 25.964 109.305 27.26 109.305 28.79C109.305 29.996 110.115 31.004 111.663 31.346L112.959 31.634C113.661 31.778 113.985 32.138 113.985 32.606C113.985 33.146 113.535 33.614 112.671 33.614C111.555 33.614 110.961 32.912 110.889 32.12L109.071 32.624ZM117.592 33.686C117.592 34.514 118.168 35.054 118.96 35.054C119.194 35.054 119.32 35 119.392 34.964C119.374 35.9 118.618 36.728 117.79 36.908V37.97C119.014 37.808 120.724 36.746 120.724 34.226C120.724 33.074 120.04 32.318 119.086 32.318C118.24 32.318 117.592 32.93 117.592 33.686ZM129.479 35V22.238H127.283V35H129.479ZM131.375 23.318C131.375 24.056 131.879 24.56 132.599 24.56C132.779 24.56 132.941 24.488 132.977 24.47C132.941 25.28 132.275 25.982 131.537 26.126V27.116C132.635 27.008 134.201 26.108 134.201 23.768C134.201 22.778 133.571 22.094 132.707 22.094C131.933 22.094 131.375 22.67 131.375 23.318ZM137.38 35V29.798C137.38 28.682 138.082 27.854 139.198 27.854C140.386 27.854 140.89 28.646 140.89 29.654V35H142.942V29.798C142.942 28.718 143.662 27.854 144.76 27.854C145.93 27.854 146.452 28.628 146.452 29.654V35H148.468V29.312C148.468 26.99 146.956 25.982 145.372 25.982C144.238 25.982 143.212 26.378 142.528 27.53C142.06 26.504 141.052 25.982 139.9 25.982C138.91 25.982 137.812 26.45 137.308 27.35V26.234H135.31V35H137.38ZM156.978 29.852C157.014 28.736 157.644 27.872 158.796 27.872C160.11 27.872 160.596 28.736 160.596 29.816V35H162.684V29.456C162.684 27.53 161.64 25.982 159.48 25.982C158.562 25.982 157.572 26.306 156.978 27.08V21.968H154.89V35H156.978V29.852ZM170.509 34.028C170.509 34.388 170.545 34.802 170.581 35H172.579C172.543 34.676 172.489 34.118 172.489 33.398V26.234H170.401V31.418C170.401 32.57 169.771 33.38 168.565 33.38C167.305 33.38 166.801 32.462 166.801 31.382V26.234H164.713V31.76C164.713 33.704 165.937 35.252 168.025 35.252C169.051 35.252 170.077 34.82 170.509 34.028ZM176.979 29.942C176.979 28.79 177.609 27.872 178.797 27.872C180.111 27.872 180.597 28.736 180.597 29.816V35H182.685V29.456C182.685 27.53 181.659 25.982 179.517 25.982C178.545 25.982 177.501 26.396 176.925 27.404V26.234H174.891V35H176.979V29.942ZM184.297 35.486C184.531 37.25 186.151 38.69 188.473 38.69C191.767 38.69 192.973 36.512 192.973 34.172V26.234H190.957V27.35C190.579 26.63 189.733 26.072 188.365 26.072C185.953 26.072 184.315 27.998 184.315 30.338C184.315 32.804 186.025 34.604 188.365 34.604C189.643 34.604 190.525 34.01 190.903 33.326V34.244C190.903 36.026 190.075 36.872 188.419 36.872C187.213 36.872 186.367 36.062 186.223 34.982L184.297 35.486ZM188.707 32.822C187.339 32.822 186.421 31.868 186.421 30.338C186.421 28.844 187.375 27.872 188.707 27.872C190.003 27.872 190.957 28.844 190.957 30.338C190.957 31.85 190.039 32.822 188.707 32.822ZM200.357 26.18C200.267 26.162 200.051 26.126 199.799 26.126C198.647 26.126 197.675 26.684 197.261 27.638V26.234H195.227V35H197.315V30.824C197.315 29.186 198.053 28.25 199.673 28.25C199.889 28.25 200.123 28.268 200.357 28.304V26.18ZM204.78 38.546L210.36 26.234H208.146L205.788 31.778L203.268 26.234H200.91L204.654 33.956L202.548 38.546H204.78Z" fill="black"/>
<path d="M66.3363 108.446C75.9921 118.101 76.9664 133.151 69.2592 143.895C68.3943 145.101 69.8948 149.435 68.8112 150.519C67.4793 151.85 63.5699 149.835 62.0582 150.837C51.3807 157.911 36.853 156.744 27.4454 147.337C16.706 136.597 16.706 119.185 27.4454 108.446C38.1849 97.7063 55.5969 97.7063 66.3363 108.446Z" fill="black"/>
<path d="M44 137.61L44 117.61L50.5 117.61C52.433 117.61 54 119.177 54 121.11L54 134.11C54 136.043 52.433 137.61 50.5 137.61L44 137.61Z" fill="#FFBD2F"/>
<path d="M44.5 117.61C46.433 117.61 48 119.177 48 121.11L48 134.11C48 136.043 46.433 137.61 44.5 137.61L43.5 137.61C41.567 137.61 40 136.043 40 134.11L40 121.11C40 119.177 41.567 117.61 43.5 117.61L44.5 117.61Z" fill="#FFD374"/>
<path d="M44.5 129.61C44.5 129.886 44.7239 130.11 45 130.11C45.2761 130.11 45.5 129.886 45.5 129.61L44.5 129.61ZM41.5 129.61C41.5 129.886 41.7239 130.11 42 130.11C42.2761 130.11 42.5 129.886 42.5 129.61L41.5 129.61ZM44.5 123.11L44.5 129.61L45.5 129.61L45.5 123.11L44.5 123.11ZM42.5 129.61L42.5 123.11L41.5 123.11L41.5 129.61L42.5 129.61ZM43.5 122.11C44.0523 122.11 44.5 122.558 44.5 123.11L45.5 123.11C45.5 122.006 44.6046 121.11 43.5 121.11L43.5 122.11ZM43.5 121.11C42.3954 121.11 41.5 122.006 41.5 123.11L42.5 123.11C42.5 122.558 42.9477 122.11 43.5 122.11L43.5 121.11Z" fill="black"/>
<path d="M39 123.61L39 130.61C39 132.267 40.3431 133.61 42 133.61V133.61C43.6569 133.61 45 132.267 45 130.61L45 128.61" stroke="black" stroke-linecap="round"/>
<path d="M117.874 185.273L143.374 182.773L168.874 185.273V351.273H117.874V185.273Z" fill="black"/>
<mask id="mask0" mask-type="alpha" maskUnits="userSpaceOnUse" x="117" y="182" width="52" height="170">
<path d="M117.874 185.273L143.374 182.773L168.874 185.273V351.273H117.874V185.273Z" fill="white"/>
</mask>
<g mask="url(#mask0)">
<circle cx="144.374" cy="182.773" r="21.5" stroke="white"/>
</g>
<path d="M117.874 185.273L104.455 186.618C83.7555 188.693 67.9945 206.113 67.9945 226.916V350.773H117.995L117.874 185.273Z" fill="#F2A500"/>
<path d="M168.874 185.273L182.294 186.618C202.993 188.693 218.754 206.113 218.754 226.916V350.773H168.754L168.874 185.273Z" fill="#F2A500"/>
<path d="M104.165 243.19C111.757 230.04 103.695 213.377 88.6725 211.169L72.3744 208.773L16.2512 308.919C10.4987 319.184 14.184 332.234 24.3744 338.117C34.6577 344.054 47.926 340.6 53.863 330.316L104.165 243.19Z" fill="#F2A500"/>
<path d="M176.874 135.273C181.374 127.773 179.374 113.773 179.374 113.773L178.874 111.773L168.374 115.273C168.374 115.273 172.374 146.273 176.874 135.273Z" fill="black"/>
<mask id="path-15-inside-1" fill="white">
<path fill-rule="evenodd" clip-rule="evenodd" d="M151.874 102.273C138.067 102.273 126.874 113.466 126.874 127.273V137.273L126.162 136.423C121.987 131.446 113.874 134.398 113.874 140.894C113.874 145.213 116.856 148.961 121.065 149.932L126.874 151.273L126.874 181.773C126.874 191.438 134.709 199.273 144.374 199.273C154.039 199.273 161.874 191.438 161.874 181.773V170.193C170.704 166.335 176.874 157.525 176.874 147.273V127.273C176.874 113.466 165.682 102.273 151.874 102.273Z"/>
</mask>
<path fill-rule="evenodd" clip-rule="evenodd" d="M151.874 102.273C138.067 102.273 126.874 113.466 126.874 127.273V137.273L126.162 136.423C121.987 131.446 113.874 134.398 113.874 140.894C113.874 145.213 116.856 148.961 121.065 149.932L126.874 151.273L126.874 181.773C126.874 191.438 134.709 199.273 144.374 199.273C154.039 199.273 161.874 191.438 161.874 181.773V170.193C170.704 166.335 176.874 157.525 176.874 147.273V127.273C176.874 113.466 165.682 102.273 151.874 102.273Z" fill="white"/>
<path d="M126.874 137.273L126.108 137.916L127.874 140.022V137.273H126.874ZM126.162 136.423L125.396 137.066L126.162 136.423ZM121.065 149.932L121.289 148.958H121.289L121.065 149.932ZM126.874 151.273H127.874V150.478L127.099 150.299L126.874 151.273ZM126.874 181.773H125.874H126.874ZM161.874 170.193L161.474 169.277L160.874 169.539V170.193H161.874ZM127.874 127.273C127.874 114.018 138.62 103.273 151.874 103.273V101.273C137.515 101.273 125.874 112.914 125.874 127.273H127.874ZM127.874 137.273V127.273H125.874V137.273H127.874ZM125.396 137.066L126.108 137.916L127.641 136.631L126.928 135.781L125.396 137.066ZM114.874 140.894C114.874 135.332 121.821 132.804 125.396 137.066L126.928 135.781C122.154 130.088 112.874 133.464 112.874 140.894H114.874ZM121.289 148.958C117.534 148.092 114.874 144.748 114.874 140.894H112.874C112.874 145.679 116.177 149.831 120.84 150.907L121.289 148.958ZM127.099 150.299L121.289 148.958L120.84 150.907L126.65 152.248L127.099 150.299ZM127.874 181.773L127.874 151.273H125.874L125.874 181.773H127.874ZM144.374 198.273C135.262 198.273 127.874 190.886 127.874 181.773H125.874C125.874 191.99 134.157 200.273 144.374 200.273V198.273ZM160.874 181.773C160.874 190.886 153.487 198.273 144.374 198.273V200.273C154.592 200.273 162.874 191.99 162.874 181.773H160.874ZM160.874 170.193V181.773H162.874V170.193H160.874ZM175.874 147.273C175.874 157.113 169.953 165.572 161.474 169.277L162.275 171.109C171.455 167.098 177.874 157.936 177.874 147.273H175.874ZM175.874 127.273V147.273H177.874V127.273H175.874ZM151.874 103.273C165.129 103.273 175.874 114.018 175.874 127.273H177.874C177.874 112.914 166.234 101.273 151.874 101.273V103.273Z" fill="black" mask="url(#path-15-inside-1)"/>
<path d="M138.367 169.273C150.867 173.773 161.366 169.273 161.366 169.273V177.273C161.366 177.273 146.867 176.773 138.367 169.273Z" fill="black"/>
<path d="M123.874 144.773C123.874 137.273 117.374 138.773 117.374 138.773" stroke="black"/>
<path d="M146.874 152.273C146.874 152.273 150.374 158.773 158.374 156.273" stroke="black"/>
<circle cx="149.374" cy="137.773" r="2.5" fill="black"/>
<circle cx="149.366" cy="137.273" r="8.5" stroke="#FFBD2F"/>
<line x1="165.366" y1="135.773" x2="157.366" y2="135.773" stroke="#FFBD2F"/>
<circle cx="173.366" cy="137.273" r="8.5" stroke="#FFBD2F"/>
<circle cx="169.374" cy="137.773" r="2.5" fill="black"/>
<ellipse cx="146.636" cy="126.036" rx="7.5" ry="2" transform="rotate(-14.067 146.636 126.036)" fill="black"/>
<ellipse rx="7.5" ry="2" transform="matrix(-0.970012 -0.243056 -0.243056 0.970012 170.636 126.036)" fill="black"/>
<path d="M159.866 137.773H161.866L163.366 149.773L156.374 149.773L159.866 137.773Z" fill="black"/>
<path d="M127.87 141.972C127.842 141.123 127.649 138.683 126.367 137.273C124.795 135.546 124.867 134.773 121.867 134.273C118.867 133.773 116.367 135.773 116.367 135.773C116.367 135.773 103.366 103.773 122.866 98.773C138.866 70.273 183.866 87.2732 182.374 113.773C182.374 113.773 165.374 122.773 136.374 114.773C128.025 121.731 127.852 139.446 127.87 141.972C127.876 142.163 127.874 142.273 127.874 142.273C127.874 142.273 127.872 142.169 127.87 141.972Z" fill="black"/>
<path d="M141.366 136.773L129.366 136.773L126.366 137.773" stroke="#FFBD2F"/>
<path d="M281.914 157.8L250.584 151.742L241.404 261.233C240.42 272.973 249.481 283.139 261.257 283.506C272.902 283.868 282.522 274.494 282.461 262.844L281.914 157.8Z" fill="#F2A500"/>
<path d="M251.507 152.428L248.713 140.842L245.212 128.866L249.682 127.359L257.937 136.541L259.214 127.888L250.192 112.082L262.62 104.815L277.588 119.679L277.367 157.773" stroke="black"/>
<path d="M257.45 107.357L271.081 123.064L270.052 130.626M253.437 109.885C253.746 110.139 260.472 119.967 263.797 124.849L263.471 132.342" stroke="black"/>
<path d="M207.645 198.092C195.724 189.368 178.758 194.988 174.403 209.104L169.344 225.503L248.653 281.776C258.237 288.576 271.597 286.296 278.537 276.814C285.549 267.232 283.56 253.651 273.978 246.639L207.645 198.092Z" fill="#F2A500"/>
<path d="M207.044 251.655C207.044 251.655 213.79 255.977 218.867 260.273L218.867 273.273L207.044 251.655Z" fill="#AF7800"/>
<path d="M175.374 185.773L175.374 351.273" stroke="white"/>
<path d="M110.374 185.773L110.374 351.273" stroke="white"/>
<path d="M246.5 170.273L243.253 250.845" stroke="white"/>
<path d="M176.587 325.395L139.411 325.867L140.84 301.735L165.905 299.633L161.797 306.688L161.372 307.419L162.217 307.439L181.188 307.897L176.587 325.395Z" fill="white" stroke="black"/>
<path d="M139.35 333.885L143.29 301.418L36.6715 298.964C24.5904 298.686 14.7545 308.61 15.1411 320.688C15.5233 332.626 25.7466 341.856 37.6607 341.02L139.35 333.885Z" fill="#F2A500"/>
<path d="M109.867 335.773L67.8666 338.773L67.8666 350.773L109.867 335.773Z" fill="#AF7800"/>
<path d="M143.367 301.773L65.4787 299.73" stroke="white"/>
<mask id="mask1" mask-type="alpha" maskUnits="userSpaceOnUse" x="139" y="299" width="43" height="28">
<path d="M141.415 301.195L166.821 299.054L162.23 306.939L181.833 307.413L176.974 325.89L139.929 326.296L141.415 301.195Z" fill="white"/>
</mask>
<g mask="url(#mask1)">
<path d="M165.468 311.952L181.528 311.041" stroke="black"/>
<line x1="164.632" y1="316.982" x2="179.85" y2="316.329" stroke="black"/>
<line x1="163.796" y1="322.012" x2="179.014" y2="321.359" stroke="black"/>
</g>
<line x1="56" y1="351" x2="234" y2="351" stroke="black" stroke-width="2"/>
</svg>
