<svg width="414" height="403" viewBox="0 0 414 403" fill="none" xmlns="http://www.w3.org/2000/svg">
<mask id="mask0" mask-type="alpha" maskUnits="userSpaceOnUse" x="0" y="0" width="414" height="403">
<rect width="414" height="403" fill="#C4C4C4"/>
</mask>
<g mask="url(#mask0)">
<path d="M183.508 176.672L209.008 174.172L234.508 176.672V342.672H183.508V176.672Z" fill="#FFD987"/>
<mask id="mask1" mask-type="alpha" maskUnits="userSpaceOnUse" x="183" y="174" width="52" height="169">
<path d="M183.508 176.672L209.008 174.172L234.508 176.672V342.672H183.508V176.672Z" fill="#FFD987"/>
</mask>
<g mask="url(#mask1)">
<circle cx="210.008" cy="174.172" r="21.5" stroke="black"/>
</g>
<path d="M183.508 176.672L170.089 178.017C149.389 180.092 133.628 197.512 133.628 218.315V342.172H183.628L183.508 176.672Z" fill="#FFD987"/>
<path d="M234.508 176.672L247.928 178.017C268.627 180.092 284.388 197.512 284.388 218.315V342.172H234.388L234.508 176.672Z" fill="#FFD987"/>
<rect x="193" y="124.672" width="32" height="66" rx="16" fill="white"/>
<path d="M193 162.172C210.5 165.172 225 162.172 225 162.172V170.464C225 170.464 206.5 178.672 193 162.172Z" fill="#C4C4C4"/>
<path d="M191 133.415C191 138.528 186.523 142.672 181 142.672C175.477 142.672 170 136.579 170 131.467C170 126.355 172.977 123.672 178.5 123.672C184.023 123.672 191 128.303 191 133.415Z" fill="white"/>
<path d="M227 133.415C227 138.528 231.478 142.672 237 142.672C242.523 142.672 248 136.579 248 131.467C248 126.355 245.023 123.672 239.5 123.672C233.978 123.672 227 128.303 227 133.415Z" fill="white"/>
<rect x="183" y="85.6719" width="52" height="82" rx="26" fill="white"/>
<path d="M181.5 135.794C181.5 128.294 175 129.794 175 129.794" stroke="black"/>
<path d="M237 135.794C237 128.294 243.5 129.794 243.5 129.794" stroke="black"/>
<path d="M199 144.672C199 144.672 202.5 151.172 210.5 148.672" stroke="black"/>
<circle cx="198.5" cy="126.172" r="2.5" fill="black"/>
<circle cx="221.5" cy="126.172" r="2.5" fill="black"/>
<ellipse cx="196.552" cy="114.848" rx="6.33109" ry="1.68829" transform="rotate(-14.067 196.552 114.848)" fill="black"/>
<ellipse rx="6.33109" ry="1.68829" transform="matrix(-0.970012 -0.243056 -0.243056 0.970012 222.552 114.848)" fill="black"/>
<path d="M209 128.672H210.5L213 140.672H206L209 128.672Z" fill="black"/>
<path d="M385.868 166.281L359.18 148.787L309.137 246.605C303.771 257.094 308.297 269.938 319.053 274.745C329.689 279.5 342.147 274.477 346.512 263.676L385.868 166.281Z" fill="#FFD987"/>
<path d="M358.477 149.701L360.288 137.921L361.594 125.513L366.301 125.815L370.454 137.443L374.919 129.921L372.571 111.874L386.826 109.866L395.034 129.299L380.908 162.637L358.477 149.701Z" fill="white"/>
<path d="M382.376 110.328L389.026 130.032L385.204 136.638M377.703 111.143C377.893 111.496 380.386 123.141 381.609 128.92L378.464 135.728" stroke="black"/>
<path d="M273.279 189.491C261.358 180.766 244.392 186.386 240.037 200.503L234.977 216.902L314.287 273.175C323.871 279.975 337.23 277.695 344.17 268.212C351.183 258.63 349.194 245.05 339.612 238.037L273.279 189.491Z" fill="#FFD987"/>
<path d="M26.0823 170.521L51.9054 151.774L106.555 247.095C112.415 257.316 108.507 270.361 97.9925 275.676C87.595 280.932 74.9119 276.51 70.037 265.928L26.0823 170.521Z" fill="#FFD987"/>
<path d="M52.6513 152.654L50.2808 140.974L48.3846 128.642L43.697 129.168L40.1028 140.981L35.2845 133.681L36.7698 115.542L22.4347 114.216L15.1624 134.018L30.8623 166.644L52.6513 152.654Z" fill="white"/>
<path d="M26.9023 114.465L21.1988 134.464L25.3316 140.88M31.6086 115.057C31.4358 115.417 29.5004 127.169 28.5543 132.999L32.0202 139.65" stroke="black"/>
<path d="M144.058 189.491C155.979 180.766 172.945 186.386 177.3 200.503L182.359 216.902L103.049 273.175C93.4658 279.975 80.1062 277.695 73.1661 268.212C66.1534 258.63 68.1429 245.05 77.725 238.037L144.058 189.491Z" fill="#FFD987"/>
<mask id="mask2" mask-type="alpha" maskUnits="userSpaceOnUse" x="237" y="142" width="121" height="146">
<path d="M321.868 147.924L290.021 149.932L308.647 258.218C310.644 269.829 321.969 277.392 333.46 274.788C344.822 272.212 351.778 260.722 348.792 249.461L321.868 147.924Z" fill="black"/>
<path d="M284.384 181.905C273.976 171.421 256.339 174.316 249.828 187.577L242.264 202.982L311.787 270.976C320.187 279.193 333.739 279.032 342.078 270.753C350.504 262.387 350.665 248.663 342.299 240.236L284.384 181.905Z" fill="black"/>
</mask>
<g mask="url(#mask2)">
<circle cx="334.189" cy="269.248" r="12.5" transform="rotate(9.00625 334.189 269.248)" fill="black"/>
</g>
<mask id="mask3" mask-type="alpha" maskUnits="userSpaceOnUse" x="58" y="143" width="121" height="146">
<path d="M94.3439 148.924L126.191 150.932L107.565 259.217C105.568 270.829 94.2428 278.392 82.7524 275.787C71.3901 273.212 64.434 261.722 67.4201 250.461L94.3439 148.924Z" fill="black"/>
<path d="M131.828 182.904C142.237 172.421 159.873 175.316 166.384 188.577L173.949 203.981L104.426 271.976C96.0247 280.192 82.4729 280.032 74.134 271.753C65.7077 263.387 65.5469 249.662 73.913 241.236L131.828 182.904Z" fill="#FFD987"/>
</mask>
<g mask="url(#mask3)">
<circle r="12.5" transform="matrix(-0.987671 0.156542 0.156542 0.987671 82.0231 270.248)" fill="black"/>
</g>
<path d="M177.508 106.172C177.508 89.8795 190.716 76.1719 207.008 76.1719" stroke="white"/>
<path d="M242.5 97.1713C245.522 106.671 239.5 111.671 235 129.671C230.5 112.671 233 103.171 233 103.171C233 103.171 229 112.171 217.5 107.671C212.389 105.671 202.5 98.1715 198 97.6715C193.5 97.1715 183 95.1721 183 127.172C156 84.1725 188 78.1707 201.5 72.1713C215 66.1719 230.5 85.1713 230.5 85.1713C230.5 85.1713 239.477 87.6713 242.5 97.1713Z" fill="black"/>
<line x1="320.421" y1="223.942" x2="311.421" y2="237.942" stroke="black"/>
<line y1="-0.5" x2="16.6433" y2="-0.5" transform="matrix(0.540758 0.841178 0.841178 -0.540758 96 224.672)" stroke="black"/>
<path d="M167 234.672C167 233.015 168.343 231.672 170 231.672H187C188.657 231.672 190 233.015 190 234.672V254.705C190 255.899 189.292 256.98 188.196 257.456L179.696 261.152C178.933 261.484 178.067 261.484 177.304 261.152L168.804 257.456C167.708 256.98 167 255.899 167 254.705V234.672Z" fill="black"/>
<path d="M53.7196 342.979C54.288 342.355 55.0928 342 55.9365 342H356.739C357.589 342 358.399 342.361 358.968 342.993L408.491 397.993C410.229 399.923 408.859 403 406.262 403H5.79463C3.18819 403 1.82164 399.905 3.57764 397.979L53.7196 342.979Z" fill="#F2A500"/>
<ellipse cx="206" cy="363.5" rx="50" ry="14.5" fill="white" stroke="black"/>
<ellipse cx="206" cy="362.5" rx="50" ry="13.5" fill="white" stroke="black"/>
<ellipse cx="206" cy="361.5" rx="33" ry="8.5" stroke="black"/>
<path d="M101.798 54.1176C114.988 57.6518 123.357 70.1981 122.054 83.3566C121.908 84.8333 125.374 87.836 124.978 89.3163C124.49 91.1357 120.097 91.3451 119.289 92.9683C113.579 104.433 100.414 110.687 87.563 107.244C72.8926 103.313 64.1866 88.2333 68.1175 73.563C72.0484 58.8927 87.1277 50.1867 101.798 54.1176Z" fill="white"/>
<path d="M104.049 76.5135V76.5135C102.265 70.3172 94.1051 68.9364 90.3813 74.2006L88.5279 76.8207L85.645 77.6509C83.5222 78.2622 82.2968 80.4787 82.9082 82.6016V82.6016" stroke="black"/>
<ellipse cx="97.7299" cy="76.252" rx="2.5" ry="2" transform="rotate(-16.0651 97.7299 76.252)" fill="#FFBD2F"/>
<path fill-rule="evenodd" clip-rule="evenodd" d="M83.3886 82.4631L82.4277 82.7399L82.67 83.5813C83.9117 87.893 88.4136 90.3818 92.7253 89.1402L98.3715 87.5142C103.148 86.1387 105.905 81.1516 104.529 76.3751L103.569 76.6518C104.027 78.244 103.108 79.9064 101.516 80.3649L87.1017 84.5158C85.5095 84.9743 83.8471 84.0553 83.3886 82.4631Z" fill="black"/>
<rect x="234" width="91" height="51" rx="9" fill="black"/>
<circle cx="259.5" cy="25.5" r="9.5" fill="white"/>
<rect x="277" y="16" width="30" height="5" rx="2.5" fill="white"/>
<rect x="277" y="30" width="17" height="5" rx="2.5" fill="white"/>
<path fill-rule="evenodd" clip-rule="evenodd" d="M310.299 120.489C306.453 125.887 298.96 127.145 293.562 123.299C288.165 119.453 286.907 111.96 290.753 106.562C294.599 101.165 302.092 99.9071 307.489 103.753C312.887 107.599 314.145 115.092 310.299 120.489ZM311.928 121.65C307.441 127.947 298.699 129.414 292.402 124.927C286.105 120.441 284.637 111.699 289.124 105.402C293.611 99.1047 302.353 97.6373 308.65 102.124C314.947 106.611 316.414 115.353 311.928 121.65ZM305.983 107.591L304.354 106.43L298.551 114.574L303.437 118.056L304.598 116.427L301.34 114.106L305.983 107.591Z" fill="black"/>
</g>
</svg>
