<svg width="16" height="16" viewBox="0 0 16 16" fill="none" xmlns="http://www.w3.org/2000/svg">
<path fill-rule="evenodd" clip-rule="evenodd" d="M10.8284 9.89947L8 12.7279L5.17157 9.89947C3.60948 8.33738 3.60948 5.80471 5.17157 4.24262C6.73367 2.68052 9.26633 2.68052 10.8284 4.24262C12.3905 5.80471 12.3905 8.33738 10.8284 9.89947ZM11.5355 3.53551C13.4882 5.48813 13.4882 8.65396 11.5355 10.6066L8.70711 13.435C8.31658 13.8255 7.68342 13.8255 7.29289 13.435L4.46447 10.6066C2.51184 8.65396 2.51184 5.48813 4.46447 3.53551C6.41709 1.58289 9.58291 1.58289 11.5355 3.53551ZM7.99999 7.99997C8.55228 7.99997 8.99999 7.55225 8.99999 6.99997C8.99999 6.44768 8.55228 5.99997 7.99999 5.99997C7.44771 5.99997 6.99999 6.44768 6.99999 6.99997C6.99999 7.55225 7.44771 7.99997 7.99999 7.99997Z" fill="black"/>
</svg>


