<svg width="231" height="231" viewBox="0 0 231 231" fill="none" xmlns="http://www.w3.org/2000/svg">
<ellipse cx="115.5" cy="115.313" rx="115.5" ry="115.313" fill="#F2A500"/>
<path fill-rule="evenodd" clip-rule="evenodd" d="M116 58.9044C87.2604 58.9044 63.9623 82.2025 63.9623 110.942V136.75C63.9623 161.857 81.7433 182.812 105.4 187.707L102.991 231H129.009L126.6 187.707C150.257 182.812 168.038 161.857 168.038 136.75V110.942C168.038 82.2025 144.74 58.9044 116 58.9044Z" fill="white"/>
<ellipse cx="133.888" cy="109.234" rx="8.1309" ry="8.11772" fill="black"/>
<ellipse cx="98.112" cy="109.234" rx="8.1309" ry="8.11772" fill="black"/>
<rect width="9.74522" height="12.6517" rx="4.87261" transform="matrix(-0.500608 -0.865674 0.866376 -0.499392 91.8785 151.907)" fill="#F2A500"/>
<path d="M95.6728 131.964C94.3256 131.964 93.2208 133.059 93.3557 134.399C93.5936 136.762 94.1767 139.082 95.0903 141.284C96.3161 144.238 98.1129 146.923 100.378 149.184C102.643 151.446 105.332 153.24 108.291 154.463C111.251 155.687 114.423 156.317 117.626 156.317C120.829 156.317 124.001 155.687 126.961 154.463C129.92 153.24 132.609 151.446 134.874 149.184C137.139 146.923 138.936 144.238 140.162 141.284C141.076 139.082 141.659 136.762 141.897 134.399C142.032 133.059 140.927 131.964 139.58 131.964C138.232 131.964 137.156 133.06 136.988 134.397C136.77 136.119 136.323 137.809 135.655 139.42C134.674 141.783 133.237 143.931 131.425 145.74C129.613 147.549 127.461 148.984 125.094 149.963C122.726 150.943 120.189 151.447 117.626 151.447C115.064 151.447 112.526 150.943 110.158 149.963C107.791 148.984 105.64 147.549 103.828 145.74C102.016 143.931 100.578 141.783 99.5974 139.42C98.9292 137.809 98.4819 136.119 98.2648 134.397C98.0963 133.06 97.0199 131.964 95.6728 131.964Z" fill="#FFBD2F"/>
</svg>
