<svg width="18" height="18" viewBox="0 0 18 18" fill="none"
  xmlns="http://www.w3.org/2000/svg">
  <rect width="18" height="18" rx="3" fill="#FBF0D9"/>
  <path d="M8.24079 4.88562C8.63988 4.42008 9.36012 4.42008 9.75921 4.88562L10.4959 5.74493C10.6442 5.91792 10.8471 6.03507 11.071 6.077L12.1836 6.28531C12.7863 6.39817 13.1464 7.02191 12.9428 7.60031L12.5669 8.66793C12.4912 8.88284 12.4912 9.11716 12.5669 9.33207L12.9428 10.3997C13.1464 10.9781 12.7863 11.6018 12.1836 11.7147L11.071 11.923C10.8471 11.9649 10.6442 12.0821 10.4959 12.2551L9.75921 13.1144C9.36012 13.5799 8.63988 13.5799 8.24079 13.1144L7.50413 12.2551C7.35584 12.0821 7.15292 11.9649 6.92896 11.923L5.81645 11.7147C5.21373 11.6018 4.85361 10.9781 5.05724 10.3997L5.43309 9.33207C5.50876 9.11716 5.50876 8.88284 5.43309 8.66793L5.05724 7.60031C4.85361 7.02191 5.21373 6.39817 5.81645 6.28531L6.92896 6.077C7.15292 6.03507 7.35584 5.91792 7.50413 5.74493L8.24079 4.88562Z" fill="#F2A500"/>
  <circle cx="9" cy="9" r="1" fill="black"/>
</svg>
