<svg width="24" height="24" viewBox="0 0 24 24" fill="none" xmlns="http://www.w3.org/2000/svg">
<path fill-rule="evenodd" clip-rule="evenodd" d="M7 6C7 3.23858 9.23858 1 12 1C14.7614 1 17 3.23858 17 6V7H18C20.2091 7 22 8.79086 22 11V19C22 21.2091 20.2091 23 18 23H6C3.79086 23 2 21.2091 2 19V11C2 8.79086 3.79086 7 6 7H7V6ZM15 6V7H9V6C9 4.34315 10.3431 3 12 3C13.6569 3 15 4.34315 15 6ZM6 9H7H17H18C19.1046 9 20 9.89543 20 11V19C20 20.1046 19.1046 21 18 21H6C4.89543 21 4 20.1046 4 19V11C4 9.89543 4.89543 9 6 9ZM12 15C13.1046 15 14 14.1046 14 13C14 11.8954 13.1046 11 12 11C10.8954 11 10 11.8954 10 13C10 14.1046 10.8954 15 12 15Z" fill="black"/>
</svg>








