<svg width="24" height="24" viewBox="0 0 24 24" fill="none" xmlns="http://www.w3.org/2000/svg">
<path fill-rule="evenodd" clip-rule="evenodd" d="M12 20C16.4183 20 20 16.4183 20 12C20 7.58172 16.4183 4 12 4C7.58172 4 4 7.58172 4 12C4 16.4183 7.58172 20 12 20ZM12 22C17.5228 22 22 17.5228 22 12C22 6.47715 17.5228 2 12 2C6.47715 2 2 6.47715 2 12C2 17.5228 6.47715 22 12 22Z" fill="black"/>
<path d="M12.7122 15.75V14.8242C13.8517 14.6458 14.5 13.9153 14.5 13.1339C14.5 12.3695 13.9794 11.707 12.6631 11.4522L11.8084 11.2908C11.4253 11.2143 11.2289 11.036 11.2289 10.8066C11.2289 10.5348 11.5039 10.2545 12.054 10.2545C12.8301 10.2545 12.9971 10.6962 13.056 10.9595L14.4214 10.6452C14.2839 10.0677 13.7927 9.39666 12.7122 9.19281V8.25H11.5825V9.16733C10.5511 9.32021 9.72593 9.97424 9.72593 10.9255C9.72593 11.7324 10.4037 12.31 11.5039 12.5394L12.3782 12.7177C12.7711 12.7942 12.9872 12.9555 12.9872 13.2019C12.9872 13.5331 12.6336 13.737 12.1424 13.737C11.2976 13.737 10.9047 13.2953 10.8556 12.8027L9.5 13.066C9.56876 13.7625 10.1974 14.6458 11.5825 14.8412V15.75H12.7122Z" fill="#FFBD2F"/>
</svg>




