<svg width="48" height="48" viewBox="0 0 48 48" fill="none" xmlns="http://www.w3.org/2000/svg">
<path d="M32.813 21.0694C32.9542 21.7262 32.9367 22.523 32.7663 23.4622C32.0873 26.9365 29.8765 28.6725 26.1362 28.6725H25.6205C25.4299 28.6714 25.2456 28.7403 25.1025 28.8662C24.9542 28.9946 24.8556 29.1709 24.8237 29.3644L24.7758 29.5849L24.1307 33.6437L24.1061 33.8199C24.0729 34.0148 23.9706 34.1912 23.818 34.3169C23.674 34.4436 23.4883 34.5126 23.2965 34.5105H20.353C20.2793 34.5144 20.2058 34.5005 20.1386 34.4701C20.0714 34.4396 20.0125 34.3935 19.9668 34.3355C19.9204 34.2763 19.8871 34.208 19.869 34.135C19.8509 34.062 19.8485 33.986 19.8618 33.912C19.933 33.4769 20.0345 32.8177 20.1733 31.9415C20.3098 31.0665 20.4137 30.4085 20.4848 29.971C20.556 29.5335 20.6598 28.8767 20.8021 28.0052C20.9433 27.1325 21.0495 26.4769 21.1183 26.0394C21.1568 25.75 21.3271 25.6065 21.6235 25.6065H23.1588C24.2007 25.6217 25.1212 25.54 25.9297 25.3604C27.297 25.0547 28.4193 24.4924 29.2967 23.6699C30.0958 22.9267 30.7002 21.9642 31.1167 20.7847C31.3057 20.2364 31.4398 19.7149 31.5273 19.2237C31.5343 19.1759 31.5436 19.1467 31.5565 19.1374C31.5658 19.1245 31.5821 19.121 31.5973 19.1245C31.6227 19.1358 31.6469 19.1495 31.6697 19.1654C32.281 19.6297 32.666 20.2632 32.813 21.0694ZM30.797 17.7607C30.797 18.5972 30.6173 19.52 30.2545 20.5304C29.628 22.3527 28.4497 23.5847 26.7113 24.2264C25.827 24.5402 24.8423 24.7024 23.7538 24.7222C23.7538 24.7292 23.4026 24.7304 22.6992 24.7304L21.6456 24.7222C20.8616 24.7222 20.4008 25.0955 20.2608 25.8469C20.2456 25.9087 19.9131 27.9819 19.2633 32.064C19.254 32.141 19.2073 32.183 19.1221 32.183H15.663C15.5815 32.1847 15.5006 32.1684 15.4261 32.1351C15.3517 32.1018 15.2856 32.0524 15.2325 31.9905C15.1774 31.9296 15.1368 31.8571 15.1135 31.7783C15.0903 31.6996 15.0851 31.6166 15.0983 31.5355L17.819 14.2747C17.8538 14.0538 17.9684 13.8534 18.141 13.7112C18.3093 13.5664 18.5245 13.4876 18.7465 13.4895H25.7628C26.0288 13.4895 26.4103 13.5409 26.905 13.6424C27.4043 13.7404 27.8395 13.8687 28.2152 14.0169C29.0528 14.3365 29.6922 14.8195 30.1343 15.46C30.5765 16.104 30.797 16.8682 30.797 17.7607Z" fill="black"/>
</svg>














