<svg width="24" height="24" viewBox="0 0 24 24" fill="none" xmlns="http://www.w3.org/2000/svg">
<path fill-rule="evenodd" clip-rule="evenodd" d="M4 5C4 2.79086 5.79086 1 8 1H16C18.2091 1 20 2.79086 20 5V19C20 21.2091 18.2091 23 16 23H8C5.79086 23 4 21.2091 4 19V5ZM8 3C6.89543 3 6 3.89543 6 5V19C6 20.1046 6.89543 21 8 21H16C17.1046 21 18 20.1046 18 19V5C18 3.89543 17.1046 3 16 3H8ZM13 18C13 18.5523 12.5523 19 12 19C11.4477 19 11 18.5523 11 18C11 17.4477 11.4477 17 12 17C12.5523 17 13 17.4477 13 18ZM11 5C10.4477 5 10 5.44772 10 6C10 6.55228 10.4477 7 11 7H13C13.5523 7 14 6.55228 14 6C14 5.44772 13.5523 5 13 5H11Z" fill="black"/>
</svg>









