<svg width="24" height="24" viewBox="0 0 24 24" fill="none" xmlns="http://www.w3.org/2000/svg">
<ellipse cx="12" cy="18.8841" rx="9.94737" ry="3.11584" fill="black"/>
<path fill-rule="evenodd" clip-rule="evenodd" d="M17.2926 13.7909C20.0982 11.1545 20.0982 6.88004 17.2926 4.24361C14.487 1.60719 9.9382 1.60719 7.13259 4.24361C4.32698 6.88004 4.32698 11.1545 7.13259 13.7909L11.4674 17.8643C11.8789 18.2511 12.5462 18.2511 12.9578 17.8643L17.2926 13.7909ZM11.9999 8.81749C13.2208 8.81749 14.2105 7.88748 14.2105 6.74026C14.2105 5.59304 13.2208 4.66303 11.9999 4.66303C10.7791 4.66303 9.78941 5.59304 9.78941 6.74026C9.78941 7.88748 10.7791 8.81749 11.9999 8.81749Z" fill="#FFBD2F"/>
</svg>


