<svg width="24" height="24" viewBox="0 0 24 24" fill="none" xmlns="http://www.w3.org/2000/svg">
<path d="M17.5754 22H5.05825C3.37882 22 2.02651 20.6214 2.0588 18.9423L2.20424 11.3796C2.27205 7.8536 6.5382 6.13436 9.03192 8.62808L18.9896 18.5858C20.2496 19.8457 19.3572 22 17.5754 22Z" fill="#FFBD2F"/>
<mask id="mask0" mask-type="alpha" maskUnits="userSpaceOnUse" x="2" y="7" width="17" height="15">
<path d="M15.1612 22H5.05825C3.37882 22 2.02651 20.6214 2.0588 18.9423L2.20424 11.3796C2.27205 7.8536 6.5382 6.13436 9.03192 8.62808L17.2825 16.8787C19.1724 18.7686 17.8339 22 15.1612 22Z" fill="#FFBD2F"/>
</mask>
<g mask="url(#mask0)">
<circle cx="12.7794" cy="11.6055" r="1.92489" fill="#F2A500"/>
<circle cx="13.1644" cy="21.9999" r="3.07983" fill="#F2A500"/>
<circle cx="7.00475" cy="15.8403" r="2.30987" fill="white"/>
</g>
<path fill-rule="evenodd" clip-rule="evenodd" d="M6.37274 21.9999C6.31632 21.7603 6.28867 21.5097 6.29363 21.2521L6.43907 13.6893C6.48254 11.4285 8.25201 9.91052 10.1736 9.76954L9.03198 8.62793C6.53826 6.13421 2.2721 7.85345 2.20429 11.3795L2.05886 18.9422C2.02656 20.6213 3.37887 21.9999 5.0583 21.9999H6.37274Z" fill="#F2A500"/>
<path fill-rule="evenodd" clip-rule="evenodd" d="M7.41526 21.9999C7.33192 21.7733 7.28848 21.5276 7.29341 21.2713L7.43885 13.7086C7.47929 11.6056 9.51106 10.3595 11.282 10.878L10.1736 9.76959C8.25198 9.91057 6.48251 11.4286 6.43903 13.6894L6.2936 21.2521C6.28864 21.5097 6.31628 21.7603 6.3727 21.9999H7.41526Z" fill="black"/>
</svg>










