<svg width="414" height="357" viewBox="0 0 414 357" fill="none" xmlns="http://www.w3.org/2000/svg">
<path d="M54.4239 259.925L52.4273 250.953L43.4543 252.949L41.4577 243.976L32.4848 245.973L30.4881 237" stroke="#F2A500" stroke-width="4"/>
<path d="M369.459 189.08L360.319 190.06L361.299 199.2L352.159 200.181L353.14 209.321L344 210.301" stroke="#F2A500" stroke-width="4"/>
<path d="M298.629 2.99994L296.25 11.8791L305.129 14.2583L302.75 23.1374" stroke="white" stroke-width="4"/>
<path d="M122.953 35.117C124.746 32.8371 125.56 29.9383 125.216 27.0583C124.871 24.1784 123.397 21.5532 121.117 19.7603C118.837 17.9673 115.938 17.1535 113.058 17.4979C110.178 17.8422 107.553 19.3165 105.76 21.5964L108.769 23.9628C109.935 22.4809 111.641 21.5226 113.513 21.2988C115.385 21.075 117.269 21.604 118.751 22.7693C120.232 23.9347 121.191 25.641 121.415 27.5128C121.638 29.3847 121.109 31.2688 119.944 32.7507L122.953 35.117Z" fill="#F2A500"/>
<rect x="1" y="173" width="42" height="17" stroke="#F2A500" stroke-width="2"/>
<rect x="18" y="190" width="50" height="17" fill="#F2A500" stroke="#F2A500" stroke-width="2"/>
<rect x="1" y="190" width="17" height="17" stroke="#F2A500" stroke-width="2"/>
<rect x="389" y="356" width="50" height="17" transform="rotate(-180 389 356)" stroke="#F2A500" stroke-width="2"/>
<rect x="364" y="339" width="50" height="17" transform="rotate(-180 364 339)" fill="#F2A500" stroke="#F2A500" stroke-width="2"/>
<rect x="413" y="339" width="49" height="17" transform="rotate(-180 413 339)" stroke="#F2A500" stroke-width="2"/>
<rect x="374" y="107" width="39" height="17" stroke="#F2A500" stroke-width="2"/>
<rect x="399" y="124" width="14" height="17" fill="#F2A500" stroke="#F2A500" stroke-width="2"/>
<rect x="349" y="124" width="50" height="17" stroke="#F2A500" stroke-width="2"/>
</svg>




