<svg width="56" height="72" viewBox="0 0 56 72" fill="none"
  xmlns="http://www.w3.org/2000/svg">
  <rect width="56" height="72" rx="6" fill="#FBF0D9"/>
  <path fill-rule="evenodd" clip-rule="evenodd" d="M15.0462 22.2565H9.38742C8.70487 22.2565 8.2229 22.9252 8.43874 23.5727L8.60256 24.0642C8.60256 24.0642 13.4231 26.4744 23.0641 24.6667C21.859 25.8719 15.2308 27.6795 9.80769 26.4744C11.6154 30.0898 14.6282 30.6924 14.6282 30.6924V31.8975C14.6282 31.8975 17.0385 32.5001 20.6538 32.5001C24.2692 32.5001 26.6795 31.8975 26.6795 31.8975V30.6924C28.4872 30.0898 30.615 28.1221 30.2949 28.2821C29.9748 28.4422 24.2692 30.6924 18.2436 28.8847C24.8718 30.0898 29.0897 28.2821 31.5 26.4744C32.9347 25.3984 33.5154 24.1088 33.7504 23.2412C33.8949 22.7082 33.4625 22.2565 32.9103 22.2565H26.9538C26.7893 20.9393 26.1912 19.7059 25.2426 18.7574C24.1174 17.6321 22.5913 17 21 17C19.4087 17 17.8826 17.6321 16.7574 18.7574C15.8088 19.7059 15.2107 20.9393 15.0462 22.2565Z" fill="#F2A500"/>
  <path d="M20.2038 15.0231C20.5352 15.2716 21.0053 15.2044 21.2538 14.8731C21.5024 14.5417 21.4352 14.0716 21.1038 13.8231L20.2038 15.0231ZM21.1038 8.4C20.7725 8.15147 20.3024 8.21863 20.0538 8.55C19.8053 8.88137 19.8725 9.35147 20.2038 9.6L21.1038 8.4ZM21.1038 13.8231L20.7529 13.5599L19.8529 14.7599L20.2038 15.0231L21.1038 13.8231ZM21.4548 8.6632L21.1038 8.4L20.2038 9.6L20.5548 9.8632L21.4548 8.6632ZM20.9172 12.4138C22.5148 11.8147 22.8198 9.68694 21.4548 8.6632L20.5548 9.8632C20.9719 10.176 20.8787 10.8262 20.3905 11.0093L20.9172 12.4138ZM20.7529 13.5599C20.3358 13.247 20.429 12.5969 20.9172 12.4138L20.3905 11.0093C18.7929 11.6084 18.4879 13.7361 19.8529 14.7599L20.7529 13.5599Z" fill="black"/>
  <path d="M27.9603 19.0231C28.2916 19.2716 28.7617 19.2044 29.0103 18.8731C29.2588 18.5417 29.1916 18.0716 28.8603 17.8231L27.9603 19.0231ZM28.8603 12.4C28.5289 12.1515 28.0588 12.2186 27.8103 12.55C27.5617 12.8814 27.6289 13.3515 27.9603 13.6L28.8603 12.4ZM28.8603 17.8231L28.5093 17.5599L27.6093 18.7599L27.9603 19.0231L28.8603 17.8231ZM29.2112 12.6632L28.8603 12.4L27.9603 13.6L28.3112 13.8632L29.2112 12.6632ZM28.6736 16.4138C30.2712 15.8147 30.5762 13.6869 29.2112 12.6632L28.3112 13.8632C28.7283 14.176 28.6351 14.8262 28.1469 15.0093L28.6736 16.4138ZM28.5093 17.5599C28.0922 17.247 28.1854 16.5969 28.6736 16.4138L28.1469 15.0093C26.5493 15.6084 26.2443 17.7361 27.6093 18.7599L28.5093 17.5599Z" fill="black"/>
  <path d="M11.9603 20.0231C12.2916 20.2716 12.7617 20.2044 13.0103 19.8731C13.2588 19.5417 13.1916 19.0716 12.8603 18.8231L11.9603 20.0231ZM12.8603 13.4C12.5289 13.1515 12.0588 13.2186 11.8103 13.55C11.5617 13.8814 11.6289 14.3515 11.9603 14.6L12.8603 13.4ZM12.8603 18.8231L12.5093 18.5599L11.6093 19.7599L11.9603 20.0231L12.8603 18.8231ZM13.2112 13.6632L12.8603 13.4L11.9603 14.6L12.3112 14.8632L13.2112 13.6632ZM12.6736 17.4138C14.2712 16.8147 14.5762 14.6869 13.2112 13.6632L12.3112 14.8632C12.7283 15.176 12.6351 15.8262 12.1469 16.0093L12.6736 17.4138ZM12.5093 18.5599C12.0922 18.247 12.1854 17.5969 12.6736 17.4138L12.1469 16.0093C10.5493 16.6084 10.2443 18.7361 11.6093 19.7599L12.5093 18.5599Z" fill="black"/>
  <path d="M11.048 42.278H10.484C10.508 42.422 10.526 42.644 10.526 42.776C10.526 42.992 10.514 43.196 10.502 43.388H9.446C9.218 43.388 8.972 43.376 8.762 43.352V43.862C8.972 43.838 9.218 43.838 9.452 43.838H10.46C10.298 45.074 9.866 45.824 9.272 46.364C9.092 46.538 8.846 46.706 8.654 46.808L9.092 47.162C10.094 46.472 10.718 45.56 10.934 43.838H12.614C12.614 44.48 12.536 45.956 12.308 46.412C12.242 46.562 12.134 46.61 11.96 46.61C11.708 46.61 11.39 46.586 11.066 46.544L11.126 47.042C11.438 47.06 11.786 47.084 12.092 47.084C12.422 47.084 12.614 46.97 12.734 46.718C13.004 46.142 13.076 44.396 13.1 43.82C13.1 43.742 13.112 43.628 13.13 43.526L12.794 43.358C12.692 43.376 12.572 43.388 12.41 43.388H10.982C10.994 43.19 11.006 42.986 11.012 42.77C11.018 42.626 11.03 42.416 11.048 42.278ZM18.758 43.01L18.392 42.776C18.278 42.806 18.164 42.806 18.074 42.806H15.062C14.864 42.806 14.63 42.788 14.462 42.77V43.298C14.618 43.292 14.822 43.28 15.062 43.28H18.128C18.044 43.856 17.768 44.69 17.342 45.236C16.838 45.878 16.166 46.388 15.002 46.682L15.41 47.132C16.514 46.784 17.228 46.226 17.774 45.524C18.248 44.906 18.542 43.94 18.668 43.31C18.692 43.196 18.716 43.094 18.758 43.01ZM20.408 43.898V44.378C20.534 44.366 20.726 44.36 20.822 44.36H21.926V46.568H20.546C20.408 46.568 20.252 46.556 20.114 46.538V47.042C20.258 47.03 20.414 47.024 20.546 47.024H23.864C23.96 47.024 24.146 47.03 24.266 47.042V46.538C24.146 46.556 24.008 46.568 23.864 46.568H22.412V44.36H23.582C23.72 44.36 23.876 44.366 24.008 44.378V43.898C23.882 43.91 23.732 43.922 23.582 43.922H20.822C20.726 43.922 20.534 43.916 20.408 43.898Z" fill="black"/>
  <path d="M14.138 55.06C13.962 54.18 13.236 53.036 11.344 53.036C9.87 53.036 8.627 54.092 8.627 55.478C8.627 56.655 9.43 57.458 10.673 57.711L11.762 57.931C12.367 58.052 12.708 58.404 12.708 58.855C12.708 59.405 12.257 59.812 11.443 59.812C10.343 59.812 9.804 59.119 9.738 58.349L8.33 58.723C8.451 59.834 9.364 61.165 11.432 61.165C13.247 61.165 14.248 59.955 14.248 58.756C14.248 57.656 13.489 56.732 12.07 56.457L10.981 56.248C10.409 56.138 10.134 55.797 10.134 55.368C10.134 54.851 10.618 54.378 11.355 54.378C12.345 54.378 12.697 55.049 12.774 55.478L14.138 55.06ZM17.079 57.821C17.112 57.227 17.475 56.765 18.091 56.765C18.795 56.765 19.092 57.238 19.092 57.843V61H20.555V57.59C20.555 56.402 19.917 55.445 18.542 55.445C18.025 55.445 17.431 55.621 17.079 56.039V53.036H15.616V61H17.079V57.821ZM24.7208 59.834C24.0058 59.834 23.3458 59.306 23.3458 58.294C23.3458 57.271 24.0058 56.754 24.7208 56.754C25.4358 56.754 26.0958 57.271 26.0958 58.294C26.0958 59.317 25.4358 59.834 24.7208 59.834ZM24.7208 55.423C23.1038 55.423 21.8828 56.622 21.8828 58.294C21.8828 59.955 23.1038 61.165 24.7208 61.165C26.3378 61.165 27.5588 59.955 27.5588 58.294C27.5588 56.622 26.3378 55.423 24.7208 55.423ZM34.2106 55.588H32.2966L30.4266 57.601V53.036H28.9636V61H30.4266V59.57L31.0316 58.932L32.4616 61H34.2546L32.0436 57.865L34.2106 55.588ZM38.8464 61H40.2434C40.2214 60.813 40.1884 60.439 40.1884 60.021V55.588H38.7254V58.734C38.7254 59.361 38.3514 59.801 37.7024 59.801C37.0204 59.801 36.7124 59.317 36.7124 58.712V55.588H35.2494V59.009C35.2494 60.186 35.9974 61.143 37.3064 61.143C37.8784 61.143 38.5054 60.923 38.8024 60.417C38.8024 60.637 38.8244 60.89 38.8464 61Z" fill="black"/>
</svg>