<svg width="18" height="18" viewBox="0 0 18 18" fill="none"
  xmlns="http://www.w3.org/2000/svg">
  <rect width="18" height="18" rx="3" fill="#FBF0D9"/>
  <path fill-rule="evenodd" clip-rule="evenodd" d="M6.42004 8.1631H4.5796C4.19256 8.1631 3.91507 8.53636 4.02658 8.907C4.02658 8.907 5.81707 9.89886 9.39805 9.15496C8.95043 9.6509 6.4885 10.3948 4.4742 9.89886C5.14563 11.3867 6.26469 11.6346 6.26469 11.6346V12.1306C6.26469 12.1306 7.15994 12.3785 8.50281 12.3785C9.84568 12.3785 10.7409 12.1306 10.7409 12.1306V11.6346C11.4124 11.3867 12.2027 10.5769 12.0838 10.6428C11.9649 10.7086 9.84568 11.6346 7.60756 10.8907C10.0695 11.3867 11.6362 10.6428 12.5314 9.89886C12.8295 9.65116 13.0284 9.37596 13.161 9.11904C13.4143 8.62829 12.9789 8.1631 12.4267 8.1631H10.8429C10.7818 7.62107 10.5596 7.11351 10.2073 6.72318C9.78936 6.26014 9.22251 6 8.63145 6C8.0404 6 7.47354 6.26014 7.0556 6.72318C6.7033 7.11351 6.48113 7.62107 6.42004 8.1631Z" fill="#FFBD2F"/>
</svg>
