<svg width="414" height="508" viewBox="0 0 414 508" fill="none" xmlns="http://www.w3.org/2000/svg">
<rect x="25" y="473" width="50" height="17" stroke="#F2A500" stroke-width="2"/>
<rect x="50" y="490" width="50" height="17" fill="#F2A500" stroke="#F2A500" stroke-width="2"/>
<rect x="1" y="490" width="49" height="17" stroke="#F2A500" stroke-width="2"/>
<rect x="366" y="297" width="47" height="17" stroke="#F2A500" stroke-width="2"/>
<rect x="391" y="314" width="22" height="17" fill="#F2A500" stroke="#F2A500" stroke-width="2"/>
<rect x="341" y="314" width="50" height="17" stroke="#F2A500" stroke-width="2"/>
<rect x="1" y="1" width="42" height="17" stroke="#F2A500" stroke-width="2"/>
<rect x="18" y="18" width="50" height="17" fill="#F2A500" stroke="#F2A500" stroke-width="2"/>
<rect x="1" y="18" width="16" height="17" stroke="#F2A500" stroke-width="2"/>
<path d="M116.424 186.925L114.427 177.953L105.454 179.949L103.458 170.976L94.4848 172.973L92.4881 164" stroke="#F2A500" stroke-width="4"/>
<path d="M329.459 168.08L320.319 169.06L321.299 178.2L312.159 179.181L313.14 188.321L304 189.301" stroke="#F2A500" stroke-width="4"/>
<path d="M329.629 63L327.25 71.8791L336.129 74.2583L333.75 83.1375" stroke="white" stroke-width="4"/>
<path d="M149.953 41.117C151.746 38.8371 152.56 35.9383 152.216 33.0584C151.871 30.1784 150.397 27.5532 148.117 25.7603C145.837 23.9673 142.938 23.1535 140.058 23.4979C137.178 23.8422 134.553 25.3165 132.76 27.5964L135.769 29.9628C136.935 28.4809 138.641 27.5227 140.513 27.2988C142.385 27.075 144.269 27.604 145.751 28.7693C147.232 29.9347 148.191 31.641 148.415 33.5128C148.638 35.3847 148.109 37.2688 146.944 38.7507L149.953 41.117Z" fill="#F2A500"/>
</svg>



