<svg width="16" height="16" viewBox="0 0 16 16" fill="none" xmlns="http://www.w3.org/2000/svg">
<path fill-rule="evenodd" clip-rule="evenodd" d="M6.29547 3.71875C6.29547 2.76951 7.05862 2 8.00002 2C8.94141 2 9.70456 2.76951 9.70456 3.71875V3.93673C10.1134 4.07604 10.4978 4.26883 10.8496 4.50685L11.396 3.97258C11.5763 3.79636 11.8684 3.79636 12.0487 3.97258C12.2289 4.14879 12.2289 4.43449 12.0487 4.61071L11.558 5.09049C12.4483 5.97689 13 7.20819 13 8.56943C13 11.2695 10.8293 13.4583 8.15152 13.4583H7.84848C5.17074 13.4583 3 11.2695 3 8.56943C3 6.41706 4.37942 4.58955 6.29547 3.93672V3.71875ZM8.79547 3.71875V3.72328C8.58479 3.69509 8.36984 3.68054 8.15152 3.68054H7.84848C7.63017 3.68054 7.41523 3.69509 7.20456 3.72328V3.71875C7.20456 3.27577 7.5607 2.91667 8.00002 2.91667C8.43933 2.91667 8.79547 3.27577 8.79547 3.71875ZM7.84848 4.59721H8.15152C10.3272 4.59721 12.0909 6.37563 12.0909 8.56943C12.0909 10.7632 10.3272 12.5417 8.15152 12.5417H7.84848C5.67282 12.5417 3.90909 10.7632 3.90909 8.56943C3.90909 6.37563 5.67282 4.59721 7.84848 4.59721ZM8.45456 6.12496C8.45456 5.87183 8.25106 5.66663 8.00002 5.66663C7.74898 5.66663 7.54547 5.87183 7.54547 6.12496V8.5694C7.54547 8.82254 7.74898 9.02774 8.00002 9.02774H9.56252C9.81356 9.02774 10.0171 8.82254 10.0171 8.5694C10.0171 8.31627 9.81356 8.11107 9.56252 8.11107H8.45456V6.12496Z" fill="black"/>
</svg>

