<svg width="49" height="49" viewBox="0 0 49 49" fill="none"
  xmlns="http://www.w3.org/2000/svg">
  <rect width="49" height="49" rx="24.5" fill="#FBF0D9"/>
  <path d="M21.5 30C22.9587 30 24.3576 29.4205 25.3891 28.3891C26.4205 27.3576 27 25.9587 27 24.5C27 23.0413 26.4205 21.6424 25.3891 20.6109C24.3576 19.5795 22.9587 19 21.5 19L21.5 24.5L21.5 30Z" fill="#FFBD2F"/>
  <path d="M21.5 35C24.2848 35 26.9555 33.8938 28.9246 31.9246C30.8938 29.9555 32 27.2848 32 24.5C32 21.7152 30.8938 19.0445 28.9246 17.0754C26.9555 15.1062 24.2848 14 21.5 14L21.5 15.5734C23.8675 15.5734 26.138 16.5139 27.8121 18.1879C29.4861 19.862 30.4266 22.1325 30.4266 24.5C30.4266 26.8675 29.4861 29.138 27.8121 30.8121C26.138 32.4861 23.8675 33.4266 21.5 33.4266L21.5 35Z" fill="black"/>
</svg>
