<svg width="62" height="72" viewBox="0 0 62 72" fill="none"
  xmlns="http://www.w3.org/2000/svg">
  <rect x="6" width="56" height="72" rx="6" fill="#FBF0D9"/>
  <path d="M17.048 42.278H16.484C16.508 42.422 16.526 42.644 16.526 42.776C16.526 42.992 16.514 43.196 16.502 43.388H15.446C15.218 43.388 14.972 43.376 14.762 43.352V43.862C14.972 43.838 15.218 43.838 15.452 43.838H16.46C16.298 45.074 15.866 45.824 15.272 46.364C15.092 46.538 14.846 46.706 14.654 46.808L15.092 47.162C16.094 46.472 16.718 45.56 16.934 43.838H18.614C18.614 44.48 18.536 45.956 18.308 46.412C18.242 46.562 18.134 46.61 17.96 46.61C17.708 46.61 17.39 46.586 17.066 46.544L17.126 47.042C17.438 47.06 17.786 47.084 18.092 47.084C18.422 47.084 18.614 46.97 18.734 46.718C19.004 46.142 19.076 44.396 19.1 43.82C19.1 43.742 19.112 43.628 19.13 43.526L18.794 43.358C18.692 43.376 18.572 43.388 18.41 43.388H16.982C16.994 43.19 17.006 42.986 17.012 42.77C17.018 42.626 17.03 42.416 17.048 42.278ZM24.758 43.01L24.392 42.776C24.278 42.806 24.164 42.806 24.074 42.806H21.062C20.864 42.806 20.63 42.788 20.462 42.77V43.298C20.618 43.292 20.822 43.28 21.062 43.28H24.128C24.044 43.856 23.768 44.69 23.342 45.236C22.838 45.878 22.166 46.388 21.002 46.682L21.41 47.132C22.514 46.784 23.228 46.226 23.774 45.524C24.248 44.906 24.542 43.94 24.668 43.31C24.692 43.196 24.716 43.094 24.758 43.01ZM26.408 43.898V44.378C26.534 44.366 26.726 44.36 26.822 44.36H27.926V46.568H26.546C26.408 46.568 26.252 46.556 26.114 46.538V47.042C26.258 47.03 26.414 47.024 26.546 47.024H29.864C29.96 47.024 30.146 47.03 30.266 47.042V46.538C30.146 46.556 30.008 46.568 29.864 46.568H28.412V44.36H29.582C29.72 44.36 29.876 44.366 30.008 44.378V43.898C29.882 43.91 29.732 43.922 29.582 43.922H26.822C26.726 43.922 26.534 43.916 26.408 43.898Z" fill="black"/>
  <path d="M34.5 27.75C35.1 26.78 35.73 25.64 36.26 24.6L35.38 23.8C34.79 24.96 34.03 26.2 33.49 26.95L34.5 27.75ZM35.75 22.36C35.31 22.09 34.42 21.66 33.87 21.39L33.22 22.27C33.82 22.59 34.68 23.06 35.09 23.35L35.75 22.36ZM38.8 22.39V23.96H37.66V22.39H38.8ZM39.89 25.02V21.33H36.59V25.68H37.66V25.02H39.89ZM42.67 19.11H36.17V19.69C35.74 19.4 34.91 18.95 34.35 18.67L33.67 19.51C34.25 19.86 35.09 20.36 35.49 20.65L36.17 19.74V20.27H40.75V26.34C40.75 26.56 40.66 26.63 40.42 26.64C40.18 26.64 39.29 26.65 38.5 26.6C38.68 26.93 38.9 27.5 38.96 27.85C40.07 27.85 40.81 27.84 41.3 27.64C41.77 27.44 41.94 27.09 41.94 26.36V20.27H42.67V19.11ZM49.582 24.83V26.46H45.632V24.83H49.582ZM44.462 27.88H45.632V27.51H49.582V27.88H50.802V23.78H44.462V27.88ZM45.572 21.74C46.392 21.09 47.092 20.38 47.562 19.71C48.042 20.37 48.782 21.09 49.612 21.74H45.572ZM46.892 18.54C46.142 19.76 44.542 21.27 42.822 22.1C43.082 22.35 43.412 22.78 43.572 23.07C44.102 22.78 44.632 22.45 45.122 22.09V22.79H50.102V22.1C50.602 22.46 51.122 22.79 51.632 23.05C51.842 22.68 52.112 22.29 52.402 21.98C50.812 21.34 49.192 20.07 48.122 18.54H46.892Z" fill="black"/>
  <path d="M17.792 54.464V62H16.688V54.464H14.288V53.408H20.192V54.464H17.792ZM20.3555 59.06C20.3555 58.156 20.6395 57.408 21.2075 56.816C21.7835 56.224 22.5075 55.928 23.3795 55.928C24.2515 55.928 24.9715 56.224 25.5395 56.816C26.1155 57.408 26.4035 58.156 26.4035 59.06C26.4035 59.972 26.1155 60.72 25.5395 61.304C24.9715 61.896 24.2515 62.192 23.3795 62.192C22.5075 62.192 21.7835 61.896 21.2075 61.304C20.6395 60.712 20.3555 59.964 20.3555 59.06ZM21.4595 59.06C21.4595 59.692 21.6435 60.204 22.0115 60.596C22.3795 60.988 22.8355 61.184 23.3795 61.184C23.9235 61.184 24.3795 60.988 24.7475 60.596C25.1155 60.204 25.2995 59.692 25.2995 59.06C25.2995 58.436 25.1155 57.928 24.7475 57.536C24.3715 57.136 23.9155 56.936 23.3795 56.936C22.8435 56.936 22.3875 57.136 22.0115 57.536C21.6435 57.928 21.4595 58.436 21.4595 59.06ZM30.0586 62.096C29.5786 62.096 29.1786 61.948 28.8586 61.652C28.5466 61.356 28.3866 60.944 28.3786 60.416V57.128H27.3466V56.12H28.3786V54.32H29.4826V56.12H30.9226V57.128H29.4826V60.056C29.4826 60.448 29.5586 60.716 29.7106 60.86C29.8626 60.996 30.0346 61.064 30.2266 61.064C30.3146 61.064 30.3986 61.056 30.4786 61.04C30.5666 61.016 30.6466 60.988 30.7186 60.956L31.0666 61.94C30.7786 62.044 30.4426 62.096 30.0586 62.096ZM37.09 60.368C37.09 60.88 36.866 61.312 36.418 61.664C35.97 62.016 35.406 62.192 34.726 62.192C34.134 62.192 33.614 62.04 33.166 61.736C32.718 61.424 32.398 61.016 32.206 60.512L33.19 60.092C33.334 60.444 33.542 60.72 33.814 60.92C34.094 61.112 34.398 61.208 34.726 61.208C35.078 61.208 35.37 61.132 35.602 60.98C35.842 60.828 35.962 60.648 35.962 60.44C35.962 60.064 35.674 59.788 35.098 59.612L34.09 59.36C32.946 59.072 32.374 58.52 32.374 57.704C32.374 57.168 32.59 56.74 33.022 56.42C33.462 56.092 34.022 55.928 34.702 55.928C35.222 55.928 35.69 56.052 36.106 56.3C36.53 56.548 36.826 56.88 36.994 57.296L36.01 57.704C35.898 57.456 35.714 57.264 35.458 57.128C35.21 56.984 34.93 56.912 34.618 56.912C34.33 56.912 34.07 56.984 33.838 57.128C33.614 57.272 33.502 57.448 33.502 57.656C33.502 57.992 33.818 58.232 34.45 58.376L35.338 58.604C36.506 58.892 37.09 59.48 37.09 60.368ZM43.7109 62H42.6549V61.184H42.6069C42.4389 61.472 42.1789 61.712 41.8269 61.904C41.4829 62.096 41.1229 62.192 40.7469 62.192C40.0269 62.192 39.4709 61.988 39.0789 61.58C38.6949 61.164 38.5029 60.576 38.5029 59.816V56.12H39.6069V59.744C39.6309 60.704 40.1149 61.184 41.0589 61.184C41.4989 61.184 41.8669 61.008 42.1629 60.656C42.4589 60.296 42.6069 59.868 42.6069 59.372V56.12H43.7109V62ZM50.7268 62H49.3948L47.5588 59.228L46.6588 60.116V62H45.5548V53.408H46.6588V58.7L49.2028 56.12H50.6188V56.168L48.3268 58.448L50.7268 61.952V62ZM53.2836 54.092C53.2836 54.308 53.2076 54.492 53.0556 54.644C52.9036 54.796 52.7196 54.872 52.5036 54.872C52.2876 54.872 52.1036 54.796 51.9516 54.644C51.7996 54.492 51.7236 54.308 51.7236 54.092C51.7236 53.876 51.7996 53.692 51.9516 53.54C52.1036 53.388 52.2876 53.312 52.5036 53.312C52.7196 53.312 52.9036 53.388 53.0556 53.54C53.2076 53.692 53.2836 53.876 53.2836 54.092ZM53.0556 56.12V62H51.9516V56.12H53.0556Z" fill="black"/>
  <path d="M13.5 31C15.4891 31 17.3968 30.1571 18.8033 28.6569C20.2098 27.1566 21 25.1217 21 23C21 20.8783 20.2098 18.8434 18.8033 17.3431C17.3968 15.8429 15.4891 15 13.5 15L13.5 23L13.5 31Z" fill="#F2A500"/>
  <path d="M13.5 36C17.0804 36 20.5142 34.6304 23.0459 32.1924C25.5777 29.7544 27 26.4478 27 23C27 19.5522 25.5777 16.2456 23.0459 13.8076C20.5142 11.3696 17.0804 10 13.5 10L13.5 11.948C16.5439 11.948 19.4631 13.1124 21.6155 15.1851C23.7679 17.2577 24.9771 20.0688 24.9771 23C24.9771 25.9312 23.7679 28.7423 21.6155 30.8149C19.4631 32.8876 16.5439 34.052 13.5 34.052L13.5 36Z" fill="black"/>
</svg>