<svg width="18" height="18" viewBox="0 0 18 18" fill="none"
  xmlns="http://www.w3.org/2000/svg">
  <rect width="18" height="18" rx="3" fill="#FBF0D9"/>
  <path d="M6.5 11C7.16304 11 7.79893 10.7366 8.26777 10.2678C8.73661 9.79893 9 9.16304 9 8.5C9 7.83696 8.73661 7.20107 8.26777 6.73223C7.79893 6.26339 7.16304 6 6.5 6L6.5 8.5L6.5 11Z" fill="#FFBD2F"/>
  <path d="M6.5 13C7.69347 13 8.83807 12.5259 9.68198 11.682C10.5259 10.8381 11 9.69347 11 8.5C11 7.30653 10.5259 6.16193 9.68198 5.31802C8.83807 4.47411 7.69347 4 6.5 4L6.5 4.67431C7.51464 4.67431 8.48771 5.07737 9.20517 5.79483C9.92263 6.51229 10.3257 7.48536 10.3257 8.5C10.3257 9.51464 9.92262 10.4877 9.20517 11.2052C8.48771 11.9226 7.51463 12.3257 6.5 12.3257L6.5 13Z" fill="black"/>
</svg>
