<svg width="24" height="24" viewBox="0 0 24 24" fill="none" xmlns="http://www.w3.org/2000/svg">
<path fill-rule="evenodd" clip-rule="evenodd" d="M18.8205 14.4868C20.54 13.5489 21 12.5819 21 12C21 11.4181 20.54 10.4511 18.8205 9.51315C17.1765 8.61647 14.7689 8 12 8C9.23113 8 6.82345 8.61647 5.17953 9.51315C3.45998 10.4511 3 11.4181 3 12C3 12.5819 3.45998 13.5489 5.17953 14.4868C6.82345 15.3835 9.23113 16 12 16C14.7689 16 17.1765 15.3835 18.8205 14.4868ZM12 18C18.0751 18 23 15.3137 23 12C23 8.68629 18.0751 6 12 6C5.92487 6 1 8.68629 1 12C1 15.3137 5.92487 18 12 18Z" fill="black"/>
<ellipse cx="12" cy="12" rx="2.44444" ry="2.4" fill="black"/>
</svg>








