<svg width="24" height="24" viewBox="0 0 24 24" fill="none" xmlns="http://www.w3.org/2000/svg">
<path d="M6.5339 18.6278C6.5339 18.6278 16.7351 11.1453 6.5339 2C6.5339 2 -3.66738 10.3139 6.5339 18.6278Z" stroke="#FFBD2F"/>
<path d="M6.04151 19.1259C6.04151 19.1259 18.8653 20.3017 18.8653 7.3683C18.8653 7.3683 5.4003 6.7804 6.04151 19.1259Z" fill="#FFBD2F"/>
<path d="M6.04151 19.1259C6.04151 19.1259 18.8653 20.3017 18.8653 7.3683C18.8653 7.3683 5.4003 6.7804 6.04151 19.1259ZM6.04151 19.1259L8.61615 16.7466M12.428 13.2238L10.1789 15.3023M10.1789 15.3023L10.6144 12.3924M10.1789 15.3023L8.61615 16.7466M8.61615 16.7466L11.0101 16.7466" stroke="black"/>
</svg>











