<svg width="24" height="24" viewBox="0 0 24 24" fill="none" xmlns="http://www.w3.org/2000/svg">
<path d="M10.3405 19.7996L12.2686 5.5H18.2707L20.1988 19.7996C20.3201 20.6995 19.6203 21.5 18.7122 21.5H11.8271C10.919 21.5 10.2192 20.6995 10.3405 19.7996Z" fill="white" stroke="black"/>
<path d="M7.82025 13.9118C7.82025 13.9118 8.19104 13.5882 7.44946 12.6176C6.70789 11.6471 8.19104 11 8.19104 11" stroke="black" stroke-linecap="round"/>
<ellipse cx="7.82023" cy="17.7941" rx="4.82023" ry="4.20588" fill="#FFBD2F"/>
<mask id="mask0" mask-type="alpha" maskUnits="userSpaceOnUse" x="3" y="13" width="10" height="9">
<ellipse cx="7.82023" cy="17.7941" rx="4.82023" ry="4.20588" fill="#C4C4C4"/>
</mask>
<g mask="url(#mask0)">
<path d="M8.87588 14.473L8.97666 13.9833L8.67968 13.9222L8.4882 14.1573L8.87588 14.473ZM7.06177 14.4737L7.44917 14.1576L7.25756 13.9227L6.96073 13.984L7.06177 14.4737ZM7.37779 13.0888L7.11059 13.5115L7.35965 13.6689L7.61807 13.5273L7.37779 13.0888ZM8.55869 13.0885L8.3187 13.5271L8.57726 13.6686L8.82625 13.5109L8.55869 13.0885ZM9.08093 14.9937C9.78234 14.9937 10.4708 14.4841 10.4708 13.7173H9.47081C9.47081 13.8081 9.36245 13.9937 9.08093 13.9937V14.9937ZM8.7751 14.9628C8.87406 14.9831 8.97647 14.9937 9.08093 14.9937V13.9937C9.04424 13.9937 9.00935 13.99 8.97666 13.9833L8.7751 14.9628ZM8.4882 14.1573C8.38712 14.2814 8.20169 14.382 7.96856 14.382V15.382C8.48438 15.382 8.96147 15.1597 9.26355 14.7888L8.4882 14.1573ZM7.96856 14.382C7.73564 14.382 7.55032 14.2815 7.44917 14.1576L6.67436 14.7898C6.97648 15.16 7.45318 15.382 7.96856 15.382V14.382ZM6.8562 14.9945C6.96092 14.9945 7.0636 14.9838 7.16281 14.9633L6.96073 13.984C6.92795 13.9907 6.89298 13.9945 6.8562 13.9945V14.9945ZM5.46631 13.718C5.46631 14.4848 6.15478 14.9945 6.8562 14.9945V13.9945C6.57467 13.9945 6.46631 13.8089 6.46631 13.718H5.46631ZM6.8562 12.4415C6.15478 12.4415 5.46631 12.9512 5.46631 13.718H6.46631C6.46631 13.6272 6.57467 13.4415 6.8562 13.4415V12.4415ZM7.645 12.6662C7.41746 12.5224 7.14441 12.4415 6.8562 12.4415V13.4415C6.95765 13.4415 7.04501 13.47 7.11059 13.5115L7.645 12.6662ZM7.61807 13.5273C7.71501 13.4742 7.83483 13.4408 7.96856 13.4408V12.4408C7.66818 12.4408 7.38293 12.5159 7.13752 12.6504L7.61807 13.5273ZM7.96856 13.4408C8.10213 13.4408 8.22181 13.4741 8.3187 13.5271L8.79869 12.6499C8.55348 12.5157 8.26857 12.4408 7.96856 12.4408V13.4408ZM9.08093 12.4408C8.7923 12.4408 8.51887 12.5219 8.29114 12.6661L8.82625 13.5109C8.89187 13.4693 8.97933 13.4408 9.08093 13.4408V12.4408ZM10.4708 13.7173C10.4708 12.9504 9.78234 12.4408 9.08093 12.4408V13.4408C9.36245 13.4408 9.47081 13.6264 9.47081 13.7173H10.4708Z" fill="#F2A500"/>
</g>
<path d="M11.8315 3C11.8315 2.44772 12.2792 2 12.8315 2H17.7079C18.2602 2 18.7079 2.44772 18.7079 3C18.7079 3.55228 18.2602 4 17.7079 4H12.8315C12.2792 4 11.8315 3.55228 11.8315 3Z" fill="#FFBD2F"/>
</svg>













