<svg width="370" height="602" viewBox="0 0 370 602" fill="none" xmlns="http://www.w3.org/2000/svg">
<path d="M70.4238 199.926L68.4272 190.953L59.4543 192.949L57.4576 183.976L48.4847 185.973L46.4881 177" stroke="#F2A500" stroke-width="4"/>
<path d="M350.459 263.08L341.319 264.06L342.299 273.2L333.159 274.181L334.14 283.321L325 284.301" stroke="#F2A500" stroke-width="4"/>
<path d="M259.5 568L253 574.5L259.5 581L253 587.5L259.5 594L253 600.5" stroke="#F2A500" stroke-width="4"/>
<path d="M18.2671 326.8L9.60089 329.866L12.6662 338.532L4 341.597" stroke="black" stroke-width="4"/>
<path d="M277.629 168L275.25 176.879L284.129 179.258L281.75 188.137" stroke="white" stroke-width="4"/>
<path d="M77.0404 590.531L83.3444 597.221L90.0347 590.917L96.3387 597.607" stroke="white" stroke-width="4"/>
<path d="M332.71 14.8617L328.114 6.90084L320.153 11.497L315.557 3.53619" stroke="black" stroke-width="4"/>
<path d="M162.643 170.807C164.436 168.527 165.25 165.628 164.905 162.748C164.561 159.868 163.087 157.243 160.807 155.45C158.527 153.657 155.628 152.843 152.748 153.188C149.868 153.532 147.243 155.006 145.45 157.286L148.459 159.653C149.625 158.171 151.331 157.212 153.203 156.989C155.075 156.765 156.959 157.294 158.44 158.459C159.922 159.625 160.881 161.331 161.104 163.203C161.328 165.075 160.799 166.959 159.634 168.441L162.643 170.807Z" fill="#F2A500"/>
<path d="M303.781 498.734C301.311 497.214 298.338 496.736 295.517 497.407C292.695 498.078 290.255 499.843 288.734 502.312C287.214 504.782 286.736 507.755 287.407 510.577C288.078 513.398 289.842 515.838 292.312 517.359L294.319 514.099C292.714 513.111 291.567 511.525 291.131 509.691C290.695 507.857 291.005 505.925 291.994 504.32C292.982 502.714 294.568 501.567 296.402 501.131C298.236 500.695 300.168 501.006 301.774 501.994L303.781 498.734Z" fill="black"/>
<rect x="64" y="537" width="50" height="17" fill="#F2A500" stroke="#F2A500" stroke-width="2"/>
<rect x="89" y="554" width="50" height="17" stroke="#F2A500" stroke-width="2"/>
<rect x="39" y="554" width="50" height="17" stroke="#F2A500" stroke-width="2"/>
<rect x="294" y="320" width="50" height="17" fill="#F2A500" stroke="#F2A500" stroke-width="2"/>
<rect x="319" y="337" width="50" height="17" stroke="#F2A500" stroke-width="2"/>
<rect x="269" y="337" width="50" height="17" stroke="#F2A500" stroke-width="2"/>
</svg>


